<?xml version="1.0" standalone="no"?>
<!DOCTYPE svg PUBLIC "-//W3C//DTD SVG 1.1//EN" "http://www.w3.org/Graphics/SVG/1.1/DTD/svg11.dtd" >
<svg xmlns="http://www.w3.org/2000/svg">
<metadata></metadata>
<defs>
<font id="cs_prajadbold" horiz-adv-x="0" >
<font-face units-per-em="2048" ascent="1638" descent="-410" />
<missing-glyph horiz-adv-x="614" />
<glyph unicode=" "  horiz-adv-x="614" />
<glyph unicode="&#x09;" horiz-adv-x="614" />
<glyph unicode="&#xa0;" horiz-adv-x="614" />
<glyph unicode="!" horiz-adv-x="523" d="M137 118q0 50 35.5 84t88.5 34t89.5 -34t36.5 -84t-36.5 -84t-89.5 -34t-88.5 34t-35.5 84zM169 350v1053h186v-1053h-186z" />
<glyph unicode="&#x22;" horiz-adv-x="667" d="M137 1382h146l-17 -390h-112zM384 1382h147l-17 -390h-113z" />
<glyph unicode="#" horiz-adv-x="1300" d="M102 415l29 146h215l50 251h-215l31 147h215l76 394h173l-79 -394h214l76 394h173l-79 -394h217l-29 -147h-217l-51 -251h215l-27 -146h-219l-80 -415h-172l82 415h-212q-48 -244 -80 -415h-172l81 415h-215zM519 561h210l51 251h-212z" />
<glyph unicode="$" horiz-adv-x="1257" d="M137 435l179 24q18 -152 82 -238t165 -105v533q-44 13 -77 23.5t-76 28.5t-74 36.5t-63 46t-52 58.5t-32.5 72.5t-12.5 89.5q0 90 31.5 162t87 118.5t123 74t145.5 37.5v164h166v-164q151 -22 250 -134t118 -298l-174 -22q-29 265 -194 306v-502q66 -19 112 -35.5 t103.5 -48t92.5 -67.5t59.5 -92.5t24.5 -125.5q0 -90 -32.5 -163t-89 -120.5t-124.5 -77t-146 -40.5v-172h-166v167q-168 19 -284 140t-142 324zM352 1004q0 -45 17.5 -80.5t50.5 -60t65.5 -39.5t77.5 -30v455q-100 -20 -155.5 -83.5t-55.5 -161.5zM729 123q92 22 153.5 86 t61.5 168q0 156 -215 227v-481z" />
<glyph unicode="%" horiz-adv-x="1261" d="M137 44l844 1364l144 -80l-843 -1364zM150 1111q0 114 77.5 195.5t187.5 81.5t186.5 -81.5t76.5 -195.5q0 -116 -76.5 -197t-186.5 -81t-187.5 81t-77.5 197zM319 1111q0 -50 28.5 -84.5t67.5 -34.5q40 0 67 34.5t27 84.5q0 49 -27 83.5t-67 34.5q-39 0 -67.5 -35 t-28.5 -83zM592 259q0 116 77 198t186 82q110 0 187.5 -82t77.5 -198t-77.5 -197t-187.5 -81q-109 0 -186 81.5t-77 196.5zM761 259q0 -47 28 -81.5t66 -34.5q40 0 68 34.5t28 81.5q0 49 -28 83.5t-68 34.5q-38 0 -66 -34.5t-28 -83.5z" />
<glyph unicode="&#x26;" horiz-adv-x="1430" d="M171 375q0 43 12.5 83.5t29.5 72.5t49.5 67.5t57.5 58.5t70 54.5t70.5 48t73.5 46.5q-145 170 -145 291q0 85 45 151.5t113 100t144 33.5q122 0 217.5 -74t95.5 -190q0 -182 -231 -348l237 -319q29 82 50 198l171 -23q-11 -66 -39 -158.5t-66 -170.5q140 -140 236 -212 l-101 -121q-114 86 -223 195q-152 -176 -371 -176q-72 0 -140 13t-133.5 43t-114.5 74t-78.5 111.5t-29.5 150.5zM340 375q0 -68 32 -117.5t84 -74.5t104 -35.5t107 -10.5q142 0 261 150l-293 396l-41 -24q-57 -35 -90 -58t-77 -61.5t-65.5 -79.5t-21.5 -85zM558 1109 q0 -77 114 -211q77 56 120 108.5t43 111.5q0 51 -46.5 82t-97.5 31q-50 0 -91.5 -34t-41.5 -88z" />
<glyph unicode="'" horiz-adv-x="419" d="M137 1382h146l-17 -390h-112z" />
<glyph unicode="(" horiz-adv-x="583" d="M154 596q0 133 25 266.5t67 244.5t80.5 190t81.5 149l142 -76q-36 -59 -69.5 -133.5t-67 -173.5t-53.5 -221.5t-20 -245.5t20 -245.5t53.5 -222t67 -174t69.5 -133.5l-144 -77q-42 68 -80 145.5t-80 187.5t-67 245.5t-25 273.5z" />
<glyph unicode=")" horiz-adv-x="665" d="M116 -142q36 59 69.5 133.5t67 174t53.5 222t20 245.5t-20 245.5t-53.5 222t-67 174t-69.5 133.5l143 77q42 -68 80 -145.5t80.5 -188t67.5 -245.5t25 -273q0 -133 -25 -266.5t-67 -244.5t-80.5 -190t-81.5 -149z" />
<glyph unicode="*" horiz-adv-x="822" d="M101 1145l41 132l196 -64v200h150v-200l193 64l41 -132l-195 -61l125 -162l-118 -87l-123 162l-121 -162l-113 90l117 159z" />
<glyph unicode="+" horiz-adv-x="983" d="M137 478v147h273v271h162v-271h275v-147h-275v-271h-162v271h-273z" />
<glyph unicode="," horiz-adv-x="581" d="M154 119q0 47 33.5 80t82.5 33q66 0 99 -56q24 -41 24 -97q0 -71 -51 -143.5t-142 -119.5l-9 47q27 25 47 59.5t27 57.5t5 23q-49 0 -82.5 33t-33.5 83z" />
<glyph unicode="-" horiz-adv-x="1001" d="M171 483v119h660v-119h-660z" />
<glyph unicode="." horiz-adv-x="503" d="M137 109q0 45 35.5 80t80.5 35q43 0 78.5 -35.5t35.5 -79.5q0 -45 -35.5 -80.5t-78.5 -35.5q-45 0 -80.5 35t-35.5 81z" />
<glyph unicode="/" horiz-adv-x="829" d="M68 17l540 1365l153 -59l-539 -1367z" />
<glyph unicode="0" horiz-adv-x="1280" d="M131 678q0 80 7 152t24 143.5t43.5 131t67 110.5t92 86.5t121.5 55.5t154 20q115 0 204.5 -39t146 -104t93 -157t51 -189.5t14.5 -209.5t-14.5 -208.5t-51 -187t-93 -154.5t-145.5 -104t-203 -43h-4q-115 3 -203.5 42.5t-145 103t-93 153.5t-51 187t-14.5 211zM297 678 q0 -550 343 -550q80 0 141.5 32t99 84t61 125.5t32.5 148t9 160.5q0 547 -343 549q-81 -1 -143 -32t-99 -81t-60.5 -122.5t-32 -147.5t-8.5 -166z" />
<glyph unicode="1" horiz-adv-x="965" d="M137 1135q92 42 183 102t125.5 89t46.5 41h145v-1367h-166v1150q-123 -86 -268 -152z" />
<glyph unicode="2" horiz-adv-x="1280" d="M135 2v126q0 172 162 317q84 72 311 198q51 28 81.5 45t74.5 44.5t70.5 48t57 48.5t47 54t28 57.5t11.5 64.5q0 63 -29 109.5t-80 72t-110.5 37.5t-128.5 12q-134 0 -219 -70.5t-85 -209.5h-166q0 105 37 188t101.5 134.5t149 78.5t182.5 27q75 0 146 -12t139 -41 t118.5 -71.5t81 -108t30.5 -146.5q0 -43 -9.5 -83t-30.5 -76t-43.5 -66t-59 -61.5t-66.5 -54.5t-77 -52t-79 -47.5t-83 -47.5q-6 -3 -9 -5q-206 -113 -282 -179q-95 -80 -106 -181h845v-150h-1010z" />
<glyph unicode="3" horiz-adv-x="1280" d="M131 440h166q4 -150 100.5 -228.5t242.5 -78.5q94 0 169.5 29t124.5 93t49 153q0 131 -99.5 203t-243.5 70h-116v148h114q59 3 109 14.5t93.5 34.5t68.5 63t25 93q0 68 -45.5 114.5t-109.5 65t-139 18.5q-46 0 -86 -7.5t-77 -25t-64.5 -43.5t-45.5 -65.5t-21 -88.5h-165 q4 95 43 169.5t103 119.5t143.5 68t169.5 23q88 0 167.5 -21t145.5 -62t105 -109.5t39 -155.5q0 -82 -42 -156t-115 -120q97 -55 153 -147.5t56 -202.5q0 -133 -72.5 -231t-186.5 -145t-250 -47q-217 0 -361 119.5t-148 335.5z" />
<glyph unicode="4" horiz-adv-x="1280" d="M133 261v125l707 976h148v-952h159v-149h-159v-261h-162v261h-693zM348 410h478v658z" />
<glyph unicode="5" horiz-adv-x="1155" d="M96 591l83 771h843v-150h-691q-6 -53 -20.5 -164.5t-22.5 -192.5q118 67 301 67q237 0 372.5 -123.5t135.5 -346.5q0 -224 -134 -347.5t-374 -123.5q-365 0 -485 299l152 56q49 -113 131.5 -160.5t201.5 -47.5q167 0 255 81t88 243q0 160 -88.5 240.5t-254.5 80.5 q-131 0 -212.5 -37.5t-117.5 -124.5z" />
<glyph unicode="6" horiz-adv-x="1281" d="M145 681q0 121 17.5 224.5t56.5 192t97 151t144 97.5t194 35q165 0 284.5 -94t179.5 -273l-154 -51q-91 268 -310 268q-317 0 -342 -472q65 65 157.5 99.5t194.5 34.5q204 0 338.5 -129.5t134.5 -324.5q0 -136 -63 -240.5t-170 -160t-240 -55.5q-137 3 -238.5 55 t-162 146.5t-89.5 218t-29 278.5zM355 439q0 -135 89.5 -221.5t219.5 -86.5q133 0 220 87.5t87 220.5q0 136 -88.5 220.5t-218.5 84.5q-134 0 -221.5 -86t-87.5 -219z" />
<glyph unicode="7" horiz-adv-x="1280" d="M133 1215v150h1014v-126q-272 -361 -458 -831q-38 -98 -68 -205t-41.5 -160.5t-11.5 -59.5l-162 34q0 29 7 53v-2q50 204 123 393q169 430 398 754h-801z" />
<glyph unicode="8" horiz-adv-x="1280" d="M131 404q0 108 57 202t153 150q-73 46 -115.5 119.5t-42.5 155.5q0 87 39.5 155.5t105.5 109.5t145.5 62t166.5 21q88 0 167.5 -21t145.5 -62t105 -109.5t39 -155.5q0 -84 -42 -156.5t-115 -118.5q97 -54 153 -148t56 -204q0 -133 -72.5 -230.5t-186.5 -144t-250 -46.5 q-103 0 -194 27t-161.5 78t-112 132.5t-41.5 183.5zM297 404q0 -132 98.5 -203t244.5 -71q145 0 244 71.5t99 202.5t-99 202.5t-244 71.5q-144 0 -243.5 -71t-99.5 -203zM348 1031q0 -53 25 -93t68 -62.5t93 -33.5t106 -11q75 0 139 19t109.5 65.5t45.5 115.5 q0 68 -45.5 114.5t-109.5 65t-139 18.5t-138.5 -18.5t-108.5 -64.5t-45 -115z" />
<glyph unicode="9" horiz-adv-x="1281" d="M145 927q0 204 135 329.5t338 125.5q137 -3 238.5 -55t162 -146.5t89.5 -218t29 -278.5q0 -121 -17.5 -224t-56.5 -192t-97 -151t-144 -97t-194 -35q-166 0 -285 94t-181 273l155 51q91 -268 311 -268q314 0 341 471q-68 -65 -159.5 -99t-191.5 -34q-204 0 -338.5 129.5 t-134.5 324.5zM311 927q0 -136 88.5 -221t218.5 -85q134 0 221.5 86.5t87.5 219.5q0 135 -89 221t-220 86q-134 0 -220.5 -87t-86.5 -220z" />
<glyph unicode=":" horiz-adv-x="537" d="M154 109q0 45 35.5 80t80.5 35q43 0 78.5 -35.5t35.5 -79.5q0 -45 -35.5 -80.5t-78.5 -35.5q-45 0 -80.5 35t-35.5 81zM154 783q0 45 35.5 80t80.5 35q43 0 78.5 -35.5t35.5 -79.5t-35.5 -79t-78.5 -35q-45 0 -80.5 34.5t-35.5 79.5z" />
<glyph unicode=";" horiz-adv-x="546" d="M137 826q0 45 35.5 79.5t80.5 34.5q43 0 78.5 -35t35.5 -79q0 -45 -35.5 -80.5t-78.5 -35.5q-45 0 -80.5 35t-35.5 81zM154 119q0 47 33.5 80t82.5 33q66 0 99 -56q24 -41 24 -97q0 -71 -51 -143.5t-142 -119.5l-9 47q27 25 47 59.5t27 57.5t5 23q-49 0 -82.5 33 t-33.5 83z" />
<glyph unicode="&#x3c;" horiz-adv-x="1005" d="M137 495v119l665 301l62 -149l-536 -211l541 -217l-67 -147z" />
<glyph unicode="=" horiz-adv-x="1003" d="M137 287v160h605v-160h-605zM137 659v160h605v-160h-605z" />
<glyph unicode="&#x3e;" horiz-adv-x="955" d="M87 754l67 147l665 -304v-119l-665 -301l-62 149l536 212z" />
<glyph unicode="?" horiz-adv-x="1071" d="M102 1063q0 225 111.5 344.5t320.5 119.5q79 0 156 -23t139.5 -65.5t101 -109.5t38.5 -148q0 -67 -15 -127t-46 -114t-57 -89.5t-69 -85.5q-78 -92 -122 -185.5t-44 -226.5h-162q-15 241 201 507q71 83 111 160.5t40 160.5q0 49 -26 88.5t-67.5 62.5t-87.5 35t-91 12 q-258 0 -258 -316h-174zM410 118q0 49 36 83.5t90 34.5q52 0 88 -34.5t36 -83.5q0 -50 -35.5 -84t-88.5 -34q-54 0 -90 34t-36 84z" />
<glyph unicode="@" horiz-adv-x="1954" d="M137 565q0 171 69.5 327.5t184.5 269t271 179.5t324 67q174 0 330 -70t265 -185.5t173 -269.5t64 -318q0 -147 -49.5 -273.5t-157.5 -195.5q-80 -50 -188 -50q-74 0 -133.5 35.5t-88.5 107.5q-129 -145 -308 -145q-100 0 -174 34t-116 94t-62 132t-20 157q0 53 8 114 q14 105 50 195t94.5 162t147 113.5t196.5 41.5q71 0 137 -33.5t116 -94.5l32 104l152 -24l-113 -798q-3 -22 21 -33.5t60 -11.5q62 0 97 26q61 47 98 147t37 196q0 142 -56.5 275.5t-151.5 226.5q-93 90 -211.5 140.5t-248.5 50.5q-137 0 -263.5 -55.5t-219 -149 t-148 -221.5t-55.5 -267t55.5 -267t148 -221.5t219 -149t263.5 -55.5q102 0 214.5 34.5t207.5 95.5l84 -130q-108 -70 -243.5 -110t-262.5 -40q-138 0 -268.5 44.5t-234.5 124.5t-182.5 184.5t-121 231t-42.5 258.5zM684 456q0 -120 50 -192.5t159 -72.5q60 0 110.5 22.5 t85.5 59t61.5 87.5t42 103.5t24.5 111.5q8 54 8 101q0 120 -49 191.5t-159 71.5q-60 0 -110.5 -23t-85.5 -60t-62 -88t-42.5 -103.5t-23.5 -109.5q-9 -65 -9 -99z" />
<glyph unicode="A" horiz-adv-x="1334" d="M51 27l531 1337h174l527 -1337l-155 -59l-169 430h-584l-170 -430zM439 551h459l-227 616z" />
<glyph unicode="B" horiz-adv-x="1361" d="M171 0v1365h498q100 0 181.5 -19.5t148.5 -61.5t104 -115.5t37 -173.5q0 -180 -152 -271q114 -45 175.5 -134.5t61.5 -203.5q0 -386 -512 -386h-542zM340 154h373q68 0 117 5t94 19.5t72.5 40t43.5 67.5t16 100q0 50 -14 89.5t-40.5 65t-58.5 43t-74.5 26.5t-82 12.5 t-86.5 3.5h-360v-472zM340 785h341q290 0 290 210q0 64 -24 108t-68 67t-94.5 32.5t-115.5 9.5h-329v-427z" />
<glyph unicode="C" horiz-adv-x="1414" d="M154 667q0 114 25.5 220t78.5 199.5t128.5 163t182.5 109.5t233 40q177 0 297 -75t208 -220l-131 -104q-68 121 -156.5 183.5t-217.5 62.5q-119 0 -212.5 -48.5t-150.5 -131t-86.5 -184.5t-29.5 -215q0 -106 29.5 -202t87 -174t151 -124t211.5 -46q129 0 218 54.5 t164 164.5l128 -101q-93 -134 -214 -202t-296 -68q-125 0 -232 38.5t-182.5 104.5t-129 155t-79 190.5t-25.5 209.5z" />
<glyph unicode="D" horiz-adv-x="1343" d="M171 0v1365h462q128 0 229 -35.5t168 -96.5t111.5 -148.5t63.5 -186.5t19 -215q0 -115 -19.5 -214t-64 -186.5t-111.5 -149.5t-168 -97.5t-228 -35.5h-462zM340 154h293q422 0 422 529t-422 529h-293v-1058z" />
<glyph unicode="E" horiz-adv-x="1250" d="M171 0v1365l928 -1v-152h-759v-449h691v-154h-691v-455h792v-154h-961z" />
<glyph unicode="F" horiz-adv-x="1167" d="M171 2v1365l928 -2v-153h-759v-447h691v-154h-691v-609h-169z" />
<glyph unicode="G" horiz-adv-x="1476" d="M154 683q0 112 24 215t75.5 194.5t126 159.5t183 107.5t239.5 39.5q177 0 298 -71.5t209 -209.5l-131 -103q-67 114 -156 172.5t-220 58.5q-95 0 -174.5 -31t-135 -84.5t-94.5 -125.5t-57 -153t-18 -169q0 -109 32 -209.5t90.5 -180t151 -127t205.5 -47.5q202 0 352 190 v300h-396v154h565v-763h-135l-34 119q-71 -78 -151.5 -114.5t-200.5 -36.5q-125 0 -232 39.5t-182.5 107.5t-129 159t-79 194.5t-25.5 214.5z" />
<glyph unicode="H" horiz-adv-x="1401" d="M171 0v1365h169v-602h722v602h169v-1365h-169v609h-722v-609h-169z" />
<glyph unicode="I" horiz-adv-x="578" d="M205 0v1365h169v-1365h-169z" />
<glyph unicode="J" horiz-adv-x="1020" d="M51 333h169q0 -97 60.5 -154.5t149.5 -57.5q97 0 157 49t60 137v1058h169v-1058q0 -162 -108 -250t-278 -88q-100 0 -184.5 39t-140 123.5t-54.5 201.5z" />
<glyph unicode="K" horiz-adv-x="1293" d="M171 0v1365h169v-660l718 689l109 -114l-542 -522l600 -683l-121 -109l-599 679l-165 -160v-485h-169z" />
<glyph unicode="L" horiz-adv-x="1064" d="M171 0v1365h170v-1211h690v-154h-860z" />
<glyph unicode="M" horiz-adv-x="1611" d="M171 0v1365h199l434 -1095l438 1095h198v-1365h-169v1027l-382 -988h-170l-379 988v-1027h-169z" />
<glyph unicode="N" horiz-adv-x="1380" d="M171 0v1365h155l715 -1049v1049h169v-1365h-154l-716 1050v-1050h-169z" />
<glyph unicode="O" horiz-adv-x="1536" d="M119 681q0 108 27.5 210.5t82.5 191t131.5 155.5t181.5 105.5t226 38.5t226.5 -38.5t182 -105.5t131.5 -155.5t82 -191t27 -210.5q0 -107 -27.5 -209t-82.5 -190.5t-131.5 -155t-181.5 -105t-226 -38.5q-120 0 -225 38.5t-181.5 105t-132 155t-83 190.5t-27.5 209z M288 681q0 -105 32 -202.5t91.5 -174.5t152 -123t204.5 -46q113 0 205.5 46t151.5 123t91 174t32 203q0 105 -32 202t-90.5 175t-151.5 124.5t-206 46.5t-205.5 -46.5t-151.5 -124.5t-91 -175t-32 -202z" />
<glyph unicode="P" horiz-adv-x="1244" d="M171 0v1365h501q80 0 145.5 -9.5t127.5 -34.5t104 -65t67.5 -106t25.5 -153q0 -89 -27 -155.5t-69.5 -105.5t-105 -63t-123.5 -32t-136 -8h-341v-633h-169zM340 787h341q37 0 60 1t57.5 5t56 12t46.5 23.5t39 37.5t23.5 55t9.5 76q0 59 -17 100t-42 63.5t-68.5 34.5 t-80 14.5t-93.5 2.5h-332v-425z" />
<glyph unicode="Q" horiz-adv-x="1570" d="M137 681q0 138 43.5 266t124 229t205 161.5t275.5 60.5q121 0 226.5 -39.5t182 -108t131.5 -159.5t82 -195.5t27 -214.5q0 -142 -52.5 -281.5t-144.5 -242.5q36 -25 105.5 -77t80.5 -60l-94 -128l-220 161q-146 -87 -324 -87q-120 0 -225.5 39.5t-181.5 108t-131 159.5 t-82.5 195t-27.5 213zM305 681q0 -109 32 -209t91 -179.5t151.5 -126.5t205.5 -47q93 0 183 36l-166 121l92 128l212 -153q77 80 118 192.5t41 237.5q0 86 -19.5 167.5t-60 153.5t-96.5 126.5t-134.5 86t-169.5 31.5t-169.5 -31.5t-134.5 -86t-96.5 -126.5t-60 -153.5 t-19.5 -167.5z" />
<glyph unicode="R" horiz-adv-x="1363" d="M171 0v1365h578q98 0 180 -19.5t149 -61.5t104.5 -115t37.5 -172q0 -104 -54.5 -184.5t-156.5 -123.5q91 -67 131 -154.5t51 -205.5q6 -66 10.5 -96t23.5 -78.5t53 -84.5l-121 -111q-40 45 -67 91t-40 95t-18.5 83.5t-9.5 87.5q-5 60 -8.5 90t-15.5 71t-32 66l2 -2 q-40 48 -103.5 70t-175.5 22h-349v-633h-169zM340 787h351q49 0 78.5 1t72.5 5t69 12t55.5 23.5t46 37.5t27.5 55t11 76q0 63 -24 107t-68 66.5t-94.5 32t-115.5 9.5h-409v-425z" />
<glyph unicode="S" horiz-adv-x="1356" d="M137 435l168 24q23 -167 124.5 -253.5t251.5 -86.5q66 0 129 14.5t118 44t89 81t34 118.5q0 33 -12.5 62t-30.5 50t-49 40t-58 31t-67.5 25t-66.5 19.5t-67 15.5l3 -2l-19 5q-183 46 -252 73q-206 80 -245 228q-10 38 -10 80q0 83 30 150.5t80.5 112.5t118.5 76t142 44.5 t153 13.5q198 0 333.5 -114t160.5 -323l-166 -22q-20 151 -107.5 228.5t-220.5 77.5q-164 0 -259.5 -66t-95.5 -178q0 -30 12 -56t29.5 -45t47.5 -36.5t55.5 -29t64 -23t63.5 -18t63 -14.5l19 -5q191 -48 270 -81q207 -87 242 -246q8 -34 8 -73q0 -85 -32 -154.5t-85 -116 t-123.5 -78.5t-145.5 -46t-153 -14h-7q-210 0 -356 120q-150 122 -181 347z" />
<glyph unicode="T" horiz-adv-x="1131" d="M51 1212v152h1029v-152h-426v-1212h-169v1212h-434z" />
<glyph unicode="U" horiz-adv-x="1365" d="M154 435v930h169v-930q0 -151 93.5 -234t261.5 -83q365 0 365 329v918h169v-918q0 -237 -140 -360t-394 -123q-242 0 -383 127.5t-141 343.5z" />
<glyph unicode="V" horiz-adv-x="1334" d="M51 1338l154 60l461 -1200l462 1200l155 -60l-532 -1338h-171z" />
<glyph unicode="W" horiz-adv-x="1759" d="M51 1348l162 41l299 -1102l287 1077h179l285 -1069l280 1094l165 -41l-358 -1348h-171l-290 1092l-293 -1092h-169z" />
<glyph unicode="X" horiz-adv-x="1329" d="M51 60l507 643l-464 601l130 101l440 -570l442 570l128 -101l-466 -599q86 -110 260.5 -329.5t249.5 -315.5l-129 -99l-485 614q-81 -104 -246.5 -314.5t-236.5 -301.5z" />
<glyph unicode="Y" horiz-adv-x="1326" d="M51 1302l128 101l483 -644l485 644l128 -101l-527 -693v-609h-169v609z" />
<glyph unicode="Z" horiz-adv-x="1233" d="M102 0v147l808 1065h-775v153h997v-145l-809 -1066h809v-154h-1030z" />
<glyph unicode="[" horiz-adv-x="576" d="M154 -198v1628h355v-135h-186v-1356h186v-137h-355z" />
<glyph unicode="\" horiz-adv-x="829" d="M68 1323l154 59l539 -1365l-153 -61z" />
<glyph unicode="]" horiz-adv-x="576" d="M68 -60h186v1357h-186v137h355v-1629h-355v135z" />
<glyph unicode="^" horiz-adv-x="1003" d="M119 836l323 562h123l319 -562l-167 -59l-215 421l-219 -425z" />
<glyph unicode="_" horiz-adv-x="660" d="M0 43h660v-123h-660v123z" />
<glyph unicode="`" horiz-adv-x="684" d="M119 1365h234l212 -309h-172z" />
<glyph unicode="a" horiz-adv-x="1163" d="M137 292q0 72 34 130.5t85.5 94t117.5 59.5t125.5 33t114.5 9q7 0 21 2q153 23 174 44v20q0 106 -67 166.5t-184 60.5q-115 0 -186 -70t-73 -192l-162 10q11 192 122.5 295.5t298.5 103.5q186 0 302 -104q111 -99 111 -256v-14v-481q0 -20 42 -53.5t83 -50.5l-48 -130 q-49 15 -114 66.5t-98 109.5q-153 -165 -309 -165q-197 0 -293.5 77t-96.5 235zM299 292q0 -37 8 -63.5t30 -51.5t70 -38t120 -13q62 0 112.5 21.5t81 54.5t51.5 75.5t29 81.5t8 76v70q-26 -8 -52 -13t-64.5 -11t-52.5 -8q-164 -28 -227 -53q-114 -45 -114 -128z" />
<glyph unicode="b" horiz-adv-x="1225" d="M188 0v1406h164v-488q61 64 137.5 104t150.5 40q109 0 193.5 -43t136 -118t77 -170t25.5 -207t-25.5 -207.5t-77 -171t-136 -118t-193.5 -42.5q-80 0 -148.5 37.5t-139.5 103.5l-9 -126h-155zM353 524q0 -83 14.5 -151.5t46 -124t87 -86.5t130.5 -31t130.5 31t87 86.5 t46.5 124t15 151.5t-15 151t-46.5 123.5t-87 86.5t-130.5 31t-130.5 -32t-87 -88.5t-46 -124t-14.5 -147.5z" />
<glyph unicode="c" horiz-adv-x="1143" d="M137 522q0 112 31 209t89.5 170.5t150.5 116t208 42.5q267 0 408 -225l-133 -84q-103 164 -275 164q-105 0 -178 -54.5t-105.5 -141t-32.5 -197.5q0 -84 19 -154.5t57 -124t100 -83.5t142 -30q171 0 273 164l133 -86q-141 -225 -406 -225q-117 0 -210 42t-151.5 115.5 t-89 170.5t-30.5 211z" />
<glyph unicode="d" horiz-adv-x="1223" d="M154 524q0 112 25.5 207t76 170t135 118t193.5 43q169 0 290 -144v490h162v-1408h-154l-8 135q-63 -66 -139 -108t-151 -42q-88 0 -160 28t-121.5 77.5t-83.5 118t-49.5 147.5t-15.5 168zM314 524q0 -83 15 -151.5t46 -124t86.5 -86.5t130.5 -31t130.5 31t87 86.5t46 124 t14.5 151.5q0 80 -14.5 147.5t-46 124t-87 88.5t-130.5 32t-130.5 -31t-86.5 -86t-46 -123.5t-15 -151.5z" />
<glyph unicode="e" horiz-adv-x="1247" d="M154 521q0 153 53.5 273t165.5 193t269 73q201 0 323 -109t146 -308v-196h-790q11 -157 88 -239t233 -82q116 0 190 55t115 177l152 -47q-101 -330 -457 -330q-488 4 -488 540zM321 594h628v36q-20 132 -99 208.5t-208 76.5q-139 0 -222.5 -87.5t-98.5 -233.5z" />
<glyph unicode="f" horiz-adv-x="655" d="M119 891v148h142v152q0 118 63 178q14 13 30.5 23t30 16.5t35.5 10.5t34 5.5t40 1.5t38.5 -0.5t44.5 -2.5t44 -3v-142q-57 9 -97 9q-63 0 -85 -22q-14 -14 -14 -74v-152h164v-148h-164v-891h-164v891h-142z" />
<glyph unicode="g" horiz-adv-x="1206" d="M154 519q0 113 25 208.5t75.5 170.5t135 117.5t194.5 42.5q154 0 290 -153l8 122h154v-1053q-9 -182 -126.5 -281t-313.5 -99q-186 0 -303 91t-138 276l162 12q28 -234 279 -234q123 0 200.5 64t77.5 175v147q-147 -145 -274 -145q-9 0 -18 1h-14q-101 0 -180 40 q-84 43 -134 119.5t-75 172t-25 206.5zM314 519q0 -83 15 -151.5t46 -124t86.5 -86.5t130.5 -31q77 0 133.5 34t86.5 93t44 124.5t14 141.5q0 81 -15 148.5t-46 123.5t-86.5 88t-130.5 32t-130.5 -31t-86.5 -86t-46 -123.5t-15 -151.5z" />
<glyph unicode="h" horiz-adv-x="1155" d="M188 0v1408h162v-486q135 141 256 141q182 0 289 -97.5t107 -274.5v-691h-164v691q0 111 -62 168t-179 57q-77 0 -135 -44.5t-85 -111t-27 -142.5v-618h-162z" />
<glyph unicode="i" horiz-adv-x="570" d="M205 0v1033h160v-1033h-160zM205 1162v239h160v-239h-160z" />
<glyph unicode="j" horiz-adv-x="599" d="M34 -237l116 -2q46 0 62 20t18 71v1182h164v-1182q0 -104 -60 -168.5t-168 -64.5q-36 0 -132 4v140zM230 1162v239h163v-239h-163z" />
<glyph unicode="k" horiz-adv-x="1070" d="M188 0v1408h164v-840q21 20 221.5 211.5t295.5 283.5l107 -109l-403 -386q80 -93 237.5 -270.5t208.5 -236.5l-118 -102l-440 500l-109 -104v-355h-164z" />
<glyph unicode="l" horiz-adv-x="605" d="M222 0v1413h162v-1413h-162z" />
<glyph unicode="m" horiz-adv-x="1646" d="M171 0v1026h155l9 -106q133 143 257 143q84 0 153 -48.5t108 -130.5q127 179 277 179q164 0 263.5 -106t99.5 -268v-689h-160v689q0 101 -58 164t-164 63q-66 0 -115 -45.5t-71 -111t-22 -138.5v-621h-164v763q0 153 -166 153q-75 0 -130.5 -44.5t-81.5 -110.5t-26 -140 v-621h-164z" />
<glyph unicode="n" horiz-adv-x="1136" d="M171 0v1024h152l8 -119q144 150 266 150q172 0 279 -96.5t107 -267.5v-691h-164v691q0 112 -61.5 168.5t-177.5 56.5t-182.5 -89t-66.5 -209v-618h-160z" />
<glyph unicode="o" horiz-adv-x="1198" d="M119 519q0 113 30.5 210t88.5 171t150.5 116t208.5 42q155 0 265.5 -72t163.5 -192t53 -275q0 -113 -30.5 -211t-89 -172t-150.5 -116q-90 -41 -203 -40h-5.5h-4.5q-114 0 -205 41q-93 42 -152 116t-89.5 171t-30.5 211zM282 519q0 -84 19.5 -154.5t57.5 -124.5t100 -84 t142 -30q158 0 236 108.5t78 284.5q0 116 -31.5 202t-104.5 138.5t-182 53.5q-105 -1 -177.5 -55t-105 -140.5t-32.5 -198.5z" />
<glyph unicode="p" horiz-adv-x="1206" d="M171 -384v1408h153l9 -135q63 66 139 108t151 42q88 0 160 -28t121.5 -77.5t83.5 -118t49.5 -147.5t15.5 -168q0 -112 -25.5 -207t-76 -170t-135 -118t-193.5 -43q-169 0 -290 144v-490h-162zM336 500q0 -80 14.5 -147.5t46 -124t87 -88.5t130.5 -32t130.5 31t87 86 t46.5 123.5t15 151.5t-15 151.5t-46.5 124t-87 86.5t-130.5 31t-130.5 -31t-87 -86.5t-46 -124t-14.5 -151.5z" />
<glyph unicode="q" horiz-adv-x="1208" d="M154 500q0 112 25.5 207.5t76.5 171t135.5 118t193.5 42.5q139 0 289 -141l8 126h156v-1406h-164v488q-61 -64 -138 -104t-151 -40q-109 0 -193.5 43t-135.5 118t-76.5 170t-25.5 207zM316 500q0 -83 14.5 -151t46 -123.5t87 -86.5t130.5 -31t130.5 32t87 88.5t46 124 t14.5 147.5q0 83 -14.5 151.5t-46 124t-87 86.5t-130.5 31t-130.5 -31t-86.5 -86.5t-46 -124t-15 -151.5z" />
<glyph unicode="r" horiz-adv-x="781" d="M205 0v1026h153l9 -120q6 6 26.5 26t30 28t29.5 24.5t34.5 24.5t35.5 17.5t42.5 13.5t45.5 4q45 0 102 -3l-8 -152q-16 1 -41.5 2.5t-44 3t-23.5 1.5q-61 0 -107 -27t-72 -73.5t-38 -100.5t-12 -115v-580h-162z" />
<glyph unicode="s" horiz-adv-x="1119" d="M137 343l160 22q17 -117 87.5 -176t176.5 -59q111 0 184.5 42t73.5 122q0 25 -9.5 45.5t-30.5 36.5t-39.5 27t-52 22.5t-51.5 16.5t-54 14l3 -2q-4 1 -11 3.5t-13 3.5q-37 9 -58.5 14.5t-59 16.5t-60.5 20t-55.5 24t-52.5 30t-43 36t-35.5 44t-21 52.5t-8.5 62.5 q0 79 35 138.5t94.5 94t130 51.5t150.5 17q160 0 263.5 -89t123.5 -246l-160 -20q-15 104 -75 156.5t-152 52.5q-47 0 -89 -8t-79 -24.5t-58.5 -48t-21.5 -74.5q0 -59 60.5 -90t199.5 -65q161 -44 227 -77q167 -82 167 -235q0 -76 -38 -137.5t-99.5 -98.5t-135.5 -56 q-67 -17 -136 -17h-14q-175 2 -287 96t-136 262z" />
<glyph unicode="t" horiz-adv-x="756" d="M119 918v149h157v339h163v-339h148v-149h-148v-688q0 -46 26 -67t102 -21h70v-140q-8 0 -43.5 -1t-42.5 -1q-68 0 -112 8.5t-81.5 32t-56.5 70t-25 119.5v688h-157z" />
<glyph unicode="u" horiz-adv-x="1136" d="M154 333v691h163v-691q0 -112 61.5 -168.5t177.5 -56.5t183 89t67 209v618h160v-1024h-152l-8 119q-144 -150 -267 -150q-172 0 -278.5 96.5t-106.5 267.5z" />
<glyph unicode="v" horiz-adv-x="1061" d="M51 1004l150 58l330 -874l331 874l148 -58l-402 -1004h-156z" />
<glyph unicode="w" horiz-adv-x="1414" d="M68 1010l154 41l210 -792l201 765h164l196 -765l198 792l156 -39l-274 -1012h-155l-205 765l-203 -765h-155z" />
<glyph unicode="x" horiz-adv-x="1054" d="M51 56l376 476l-343 443l124 95l319 -428l320 428l126 -95l-345 -443l376 -476l-125 -95l-352 464l-351 -464z" />
<glyph unicode="y" horiz-adv-x="1082" d="M68 1004l149 59l326 -827l322 827l149 -59l-473 -1192q-43 -108 -112 -149.5t-173 -41.5q-13 0 -125 7v147q78 -5 123 -5q51 0 82.5 21t54.5 79q9 25 31.5 80t34.5 88z" />
<glyph unicode="z" horiz-adv-x="988" d="M102 0v123l586 771h-586v149h784v-125l-586 -771h586v-147h-784z" />
<glyph unicode="{" horiz-adv-x="824" d="M137 560v109q39 1 68.5 15t47 35t28.5 52.5t15 63t4 71.5t-2 71.5t-4 71t-2 62.5q0 84 29.5 147t84 101t124.5 58t158 23v-153q-87 0 -156 -31.5t-68 -94.5q5 -188 -6 -293t-40 -161.5t-87 -92.5q53 -34 85 -77t42.5 -86.5t13 -93.5t-3.5 -98t-6.5 -99t2.5 -97 q0 -42 38 -71t86.5 -39.5t99.5 -10.5v-155q-79 2 -148 21.5t-125.5 57.5t-89.5 102.5t-33 149.5q0 23 3 68t4.5 81t0.5 82t-10.5 80.5t-26.5 65.5t-49 47.5t-77 17.5z" />
<glyph unicode="|" horiz-adv-x="590" d="M213 -196v1561h164v-1561h-164z" />
<glyph unicode="}" horiz-adv-x="665" d="M-22 -58q87 0 155.5 31.5t67.5 94.5q-5 188 6.5 292.5t40.5 161t87 92.5q-53 34 -85 77t-42.5 87t-13.5 94t3 97.5t6.5 99t-2.5 97.5q0 32 -21.5 56.5t-56 38t-71.5 20t-74 6.5v155q79 -2 148 -21.5t125.5 -57.5t89.5 -102.5t33 -149.5q0 -23 -3 -68t-4.5 -81t-0.5 -82 t10.5 -80.5t26.5 -65.5t49 -47.5t77 -17.5v-109q-39 -1 -68.5 -15t-47 -35t-28.5 -52.5t-15 -63t-4 -71.5t2 -71.5t4 -71t2 -62.5q0 -84 -29.5 -147t-84 -101.5t-124.5 -58.5t-158 -23v154z" />
<glyph unicode="~" horiz-adv-x="1034" d="M137 526q68 187 221 187q63 0 169 -41.5t144 -41.5q21 0 47 20.5t47 68.5l133 -52q-69 -174 -209 -182q-67 -4 -175 38t-154 42q-24 0 -49 -21t-40 -71z" />
<glyph unicode="&#xad;" horiz-adv-x="1001" d="M171 483v119h660v-119h-660z" />
<glyph unicode="&#xe01;" horiz-adv-x="1167" d="M119 720q1 7 4 19.5t16.5 48t32.5 67.5t55.5 71.5t82.5 68t116 48t153 19.5q81 0 148 -16.5t111 -42t77.5 -59.5t51.5 -66t29.5 -65t14.5 -53t3 -33v-727h-178v708q0 18 -3 39t-18.5 55.5t-40.5 61t-75 46.5t-117 20q-117 0 -188 -51t-78 -97l182 -31v-80q-5 -2 -14 -6 t-31.5 -20.5t-40 -36.5t-31.5 -55t-14 -75v-478h-176v451q0 43 18 83.5t44 67t52 47t44 29.5l18 10z" />
<glyph unicode="&#xe02;" horiz-adv-x="1140" d="M51 753q0 124 95 208.5t233 84.5q111 0 196 -66t123 -157q-16 -30 -48 -132t-44 -157v-397h176q11 0 15.5 1.5t8 10t3.5 27.5v853h177v-887q0 -30 -5 -52t-11 -37t-21.5 -25t-27.5 -15t-39 -7.5t-44.5 -3t-55.5 -0.5h-354v488q0 17 132 302q-22 53 -75 95.5t-94 42.5 q-15 0 -43 -2q49 -25 78.5 -73t29.5 -106q0 -83 -60 -143t-145 -60q-83 0 -141.5 61t-58.5 146zM154 749q0 -41 29 -69t68 -28q42 0 70.5 28t28.5 69t-28.5 70t-70.5 29q-39 0 -68 -29t-29 -70z" />
<glyph unicode="&#xe03;" horiz-adv-x="1152" d="M53 689q-1 56 7.5 103.5t30 96.5t65 92.5t107.5 78.5l133 -85q11 8 54.5 38.5t64.5 44.5q47 -16 84 -40.5t59 -50.5t36 -56t19.5 -55t6.5 -50q-85 -227 -99 -301v-370h171q12 0 16.5 1.5t8.5 10t4 27.5v853h177v-887q0 -23 -3 -41.5t-6.5 -32.5t-13.5 -24.5t-17 -17.5 t-23.5 -11.5t-27 -7t-34 -4t-37.5 -1.5h-44h-348v461q0 12 20.5 62t43 99.5t48 103t26.5 56.5q9 21 -21 82t-52 75l-110 -55l-126 60q-45 -29 -63 -57q28 6 44 6q85 0 144 -59.5t59 -144.5q0 -84 -59.5 -143.5t-143.5 -59.5q-83 0 -141 59.5t-60 143.5zM157 689 q0 -41 28.5 -69t68.5 -28q41 0 70 28t29 69t-29 70t-70 29q-40 0 -68.5 -29t-28.5 -70z" />
<glyph unicode="&#xe04;" horiz-adv-x="1198" d="M154 0v722q0 32 13.5 72.5t48 88.5t83.5 87t128 65.5t175 26.5q97 0 176 -26.5t127 -65.5t81 -86.5t45.5 -88t12.5 -71.5v-724h-177v705q0 37 -13.5 74t-41.5 72.5t-82.5 58t-127.5 22.5q-71 0 -126.5 -22.5t-85.5 -58t-44.5 -73t-14.5 -73.5v-210l-5 -84q10 59 38 139.5 t61 138.5q26 49 73.5 78.5t103.5 29.5q85 0 144.5 -59t59.5 -144q0 -84 -60 -143.5t-144 -59.5q-96 0 -157 77q-90 -288 -114 -430v-38h-177zM505 594q0 -41 28.5 -69t68.5 -28q41 0 70 28t29 69t-29 70t-70 29q-40 0 -68.5 -29t-28.5 -70z" />
<glyph unicode="&#xe05;" horiz-adv-x="1198" d="M154 0v715q0 32 6.5 67t27.5 81.5t54.5 85t94.5 72t141 47.5l119 -93l125 92q82 -13 143.5 -45.5t94.5 -70t53 -84.5t25.5 -81t5.5 -67v-719h-177v707q0 29 -1.5 49t-8 49t-18.5 49.5t-36 41t-57 32.5l-149 -76l-145 71q-30 -10 -52 -24t-35 -34.5t-20.5 -35.5t-10 -43 t-3 -38.5t-0.5 -40.5v-233l-3 -59q27 142 97 274q26 49 73.5 78.5t103.5 29.5q85 0 144.5 -59t59.5 -144q0 -84 -60 -143.5t-144 -59.5q-96 0 -157 77q-90 -288 -114 -430v-38h-177zM505 594q0 -41 28.5 -69t68.5 -28q41 0 70 28t29 69t-29 70t-70 29q-40 0 -68.5 -29 t-28.5 -70z" />
<glyph unicode="&#xe06;" horiz-adv-x="1326" d="M53 689q-1 56 7.5 103.5t30 96.5t65 92.5t107.5 78.5l133 -85q11 8 54.5 38.5t64.5 44.5q47 -16 84 -40.5t59 -50.5t36 -56t19.5 -55t6.5 -50q-83 -214 -97 -284v-80q109 -23 210.5 -110t163.5 -178v873h175v-908q0 -42 -7 -66.5t-28.5 -44t-64 -27t-111.5 -5.5 q-41 92 -142 200t-196 147v-224q0 -61 -53 -92t-126 -31q-101 0 -154 64t-60 161q-7 106 52 172t165 74v48q0 14 66 141t69 146q4 24 -24 84t-49 73l-110 -55l-126 60q-45 -29 -63 -57q28 6 44 6q85 0 144 -59.5t59 -144.5q0 -84 -59.5 -143.5t-143.5 -59.5q-83 0 -141 59.5 t-60 143.5zM157 689q0 -41 28.5 -69t68.5 -28q41 0 70 28t29 69t-29 70t-70 29q-40 0 -68.5 -29t-28.5 -70zM338 215q3 -60 35 -90.5t72 -30.5q2 0 2 34v200q-43 1 -77.5 -29t-31.5 -84z" />
<glyph unicode="&#xe07;" horiz-adv-x="935" d="M68 594l62 121q81 -91 195.5 -237.5t188.5 -247.5l73 -102v514q-9 -2 -26 -2q-85 0 -144 59t-59 142q0 85 59 144t144 59q84 0 144 -59.5t60 -143.5v-701q0 -30 -5 -52t-11 -37t-22 -25t-27.5 -15t-39 -7.5t-45 -3t-55.5 -0.5h-50q-243 357 -442 594zM463 841 q0 -40 28.5 -68.5t69.5 -28.5t69.5 28.5t28.5 68.5q0 41 -28.5 70t-69.5 29t-69.5 -29t-28.5 -70z" />
<glyph unicode="&#xe08;" horiz-adv-x="1054" d="M68 795q12 47 39.5 90.5t74 85t122.5 66.5t170 25q96 0 173.5 -26.5t123.5 -65t76.5 -87t42 -88.5t11.5 -73v-580q0 -30 -5 -52t-12 -37t-24 -25t-30 -15t-42.5 -7.5t-48.5 -3t-60 -0.5l-140 379q-48 -44 -114 -51.5t-125 25.5q-73 42 -94.5 123.5t19.5 152.5 q42 73 123 94.5t155 -20.5q63 -35 89 -106l114 -326l24 -77l-5 128v381q0 38 -12.5 75t-39.5 72.5t-78.5 57.5t-120.5 22q-121 0 -193 -53.5t-86 -125.5zM307 506q11 -40 46 -61q35 -20 73.5 -9.5t58.5 45.5q21 36 11.5 75.5t-45.5 59.5t-74.5 9t-60.5 -46q-20 -33 -9 -73z " />
<glyph unicode="&#xe09;" horiz-adv-x="1134" d="M85 471q0 85 59 144t144 59q84 0 144 -59.5t60 -143.5v-259q55 92 240 160q32 12 54 35t28 40l5 17v237q0 30 -7 59.5t-26 61.5t-47.5 55.5t-75.5 39t-107 15.5q-128 0 -214 -58.5t-101 -132.5l-130 44q13 46 45.5 92t85.5 89t135 69.5t179 26.5q98 0 178 -26.5 t127.5 -65.5t79.5 -87t44 -87.5t12 -71.5v-280q0 -11 -20.5 -31t-49.5 -38q56 -24 90 -74t34 -113q0 -84 -59.5 -143.5t-143.5 -59.5q-83 0 -142 60t-59 143v15q-40 -21 -71 -49.5t-46.5 -54.5t-25 -49t-12.5 -36l-2 -14h-176v271q-5 -1 -26 -1q-85 0 -144 59t-59 142z M189 471q0 -40 29 -68.5t70 -28.5t69.5 28.5t28.5 68.5q0 41 -28.5 70t-69.5 29t-70 -29t-29 -70zM751 188q0 -41 28.5 -69.5t68.5 -28.5q41 0 70 28.5t29 69.5t-29 70t-70 29q-40 0 -68.5 -29t-28.5 -70z" />
<glyph unicode="&#xe0a;" horiz-adv-x="1124" d="M51 753q0 124 95 208.5t233 84.5q94 0 170.5 -45.5t122.5 -114.5q49 18 92 54.5t69.5 76t46 76.5t28.5 61l8 24l146 -74q-2 -8 -7.5 -21.5t-25 -50t-44 -67t-66.5 -63t-90 -47.5q140 -72 140 -123v-592q0 -30 -5 -52t-11 -37t-21.5 -25t-27.5 -15t-39 -7.5t-44.5 -3 t-55.5 -0.5h-337v490q0 16 132 298q-8 27 -31 55.5t-40 42t-28 20.5q-17 10 -45 17.5t-41 6.5l-27 -2q49 -25 78.5 -73t29.5 -106q0 -83 -60 -143t-145 -60q-83 0 -141.5 61t-58.5 146zM154 749q0 -41 29 -69t68 -28q42 0 70.5 28t28.5 69t-28.5 70t-70.5 29q-39 0 -68 -29 t-29 -70zM606 135h159q11 0 15.5 1.5t8 10t3.5 27.5v531q0 11 -35 37t-69 38q-20 -48 -46.5 -126.5t-35.5 -119.5v-399z" />
<glyph unicode="&#xe0b;" horiz-adv-x="1131" d="M53 689q-1 56 7.5 103.5t30 96.5t65 92.5t107.5 78.5l133 -85q11 8 54.5 38.5t64.5 44.5q137 -48 186 -164q46 17 86 52.5t64.5 74t42.5 74.5t26 59l7 24l145 -74q-3 -8 -8.5 -21.5t-25 -50t-42 -67t-59.5 -63t-77 -47.5q121 -72 121 -123v-592q0 -30 -5 -52t-11 -37 t-21.5 -25t-27.5 -15t-39 -7.5t-44 -3t-55 -0.5h-334v461q0 12 20.5 62t43 99.5t48 103t26.5 56.5q9 21 -21 82t-52 75l-110 -55l-126 60q-45 -29 -63 -57q28 6 44 6q85 0 144 -59.5t59 -144.5q0 -84 -59.5 -143.5t-143.5 -59.5q-83 0 -141 59.5t-60 143.5zM157 689 q0 -41 28.5 -69t68.5 -28q41 0 70 28t29 69t-29 70t-70 29q-40 0 -68.5 -29t-28.5 -70zM621 505l2 -370h154q8 0 12 0.5t8.5 4t6.5 12t2 22.5v533q0 10 -28 28.5t-61 30.5q-84 -203 -96 -261z" />
<glyph unicode="&#xe0c;" horiz-adv-x="1638" d="M119 720q1 7 4 19.5t16.5 48t32.5 67.5t55.5 71.5t82.5 68t116 48t153 19.5q81 0 148 -16.5t111 -42t78 -59.5t52 -66t29.5 -65t14.5 -53t3 -33v-289q88 -12 166 -92.5t126 -179.5v861h178v-908q0 -41 -7 -66t-27.5 -44.5t-61 -27t-106.5 -5.5q-41 108 -118 207.5 t-151 121.5v-206q0 -61 -53 -92t-126 -31q-81 0 -127 61.5t-53 152.5q-7 108 45 176.5t138 76.5v265q0 17 -3.5 38.5t-19 56t-40.5 61t-75.5 46.5t-117.5 20q-117 0 -188 -51t-78 -97l182 -31v-80q-5 -2 -14 -6t-32 -20.5t-40.5 -36.5t-31.5 -55t-13 -75l2 -96q9 2 25 2 q85 0 144 -59t59 -142q0 -85 -59 -144t-144 -59q-84 0 -143.5 59.5t-59.5 143.5v268q0 43 18 83.5t44 67t52 47t44 29.5l18 10zM297 183q0 -41 28 -70t69 -29t70 29t29 70q0 40 -29 68.5t-70 28.5t-69 -28.5t-28 -68.5zM754 204q2 -53 29.5 -81.5t52.5 -28.5q2 0 2 34v183 q-27 1 -56.5 -28t-27.5 -79z" />
<glyph unicode="&#xe0d;" horiz-adv-x="1587" d="M102 720q1 4 2.5 12t9 31t17.5 46t29 53.5t42.5 57t59 53.5t77.5 46t99.5 31t122.5 12q81 0 148 -16.5t111 -42t78 -59.5t52 -66t29.5 -65t14.5 -53t3 -33v-613h268q10 0 14.5 1.5t7.5 11t3 30.5v870h178v-887q0 -26 -2.5 -46t-10.5 -35t-14.5 -25t-23 -16.5t-27.5 -10 t-36 -5t-40.5 -2t-48.5 -0.5h-446v708q1 16 -2.5 38.5t-18.5 56t-40.5 61t-75.5 47t-117 19.5q-117 0 -188 -51t-78 -97l182 -31v-80q-5 -2 -14 -6t-31.5 -20.5t-40 -36.5t-31.5 -55t-14 -75l2 -96q9 2 25 2q85 0 144 -59t59 -142q0 -85 -59 -144t-144 -59 q-84 0 -143.5 59.5t-59.5 143.5v268q0 43 18 83.5t44 67t52 47t44 29.5l18 10zM280 183q0 -41 28 -70t69 -29t70 29t29 70q0 40 -29 68.5t-70 28.5t-69 -28.5t-28 -68.5zM792 -213q0 73 51 123.5t123 50.5t123 -50.5t51 -123.5q0 -58 -34 -103q104 8 161.5 64t72.5 173 l133 -22q-19 -143 -127 -224t-252 -85q-204 -5 -271 98q-31 47 -31 99zM877 -213q0 -36 26.5 -61.5t62.5 -25.5t62.5 25.5t26.5 61.5t-26.5 62t-62.5 26t-62.5 -26t-26.5 -62z" />
<glyph unicode="&#xe0e;" horiz-adv-x="1221" d="M68 183q0 83 59 142t144 59q17 0 26 -2l-10 69q0 43 18 83.5t44 67t52 47t44 29.5l18 10l-289 32q1 4 2.5 12t9 31t17.5 46t29 53.5t42.5 57t59 53.5t77.5 46t99.5 31t122.5 12q81 0 148 -16.5t111 -42t77.5 -59.5t51.5 -66t29.5 -65t14.5 -53t3 -33v-908l-239 -218 q-99 74 -187 109q-49 -56 -102 -85t-124 -29t-126.5 49t-55.5 113q0 73 57.5 110.5t136.5 37.5q75 0 161 -44q14 37 29 112l130 -27q-27 -97 -50 -148l121 -53l72 88v874q0 18 -3 39t-18.5 55.5t-40.5 61t-75 46.5t-117 20q-117 0 -188.5 -51t-78.5 -97l224 -31v-80 q-6 -2 -15 -6t-32.5 -20.5t-41 -36.5t-31 -55t-11.5 -75l11 -295q4 -83 -57.5 -143t-145.5 -60q-85 0 -144 59t-59 144zM172 183q0 -41 29 -70t70 -29t69.5 29t28.5 70q0 40 -28.5 68.5t-69.5 28.5t-70 -28.5t-29 -68.5zM365 -242q0 -22 16 -43.5t35 -21.5q36 0 63 19.5 t60 55.5q-82 41 -111 41q-63 0 -63 -51z" />
<glyph unicode="&#xe0f;" horiz-adv-x="1221" d="M68 183q0 83 59 142t144 59q17 0 26 -2l-10 69q0 43 18 83.5t44 67t52 47t44 29.5l18 10l-289 32q1 4 2.5 12t9 31t17.5 46t29 53.5t42.5 57t59 53.5t77.5 46t99.5 31t122.5 12q81 0 148 -16.5t111 -42t77.5 -59.5t51.5 -66t29.5 -65t14.5 -53t3 -33v-928l-218 -207 l-108 118l-116 -116l-99 101q-26 -26 -39.5 -38t-37.5 -29.5t-49.5 -24.5t-55.5 -7q-71 0 -126 49.5t-55 113.5q0 72 58 110.5t136 38.5q56 0 113 -29q15 33 19 94l130 -21q-6 -76 -36 -153q37 -31 44 -38l116 101l106 -103l41 55v894q0 18 -3 39t-18.5 55.5t-40.5 61 t-75 46.5t-117 20q-117 0 -188.5 -51t-78.5 -97l224 -31v-80q-6 -2 -15 -6t-32.5 -20.5t-41 -36.5t-31 -55t-11.5 -75l11 -295q4 -83 -57.5 -143t-145.5 -60q-85 0 -144 59t-59 144zM172 183q0 -41 29 -70t70 -29t69.5 29t28.5 70q0 40 -28.5 68.5t-69.5 28.5t-70 -28.5 t-29 -68.5zM295 -241q0 -25 16.5 -45.5t33.5 -20.5q45 0 90 82q-55 36 -77 36q-29 0 -46 -14t-17 -38z" />
<glyph unicode="&#xe10;" horiz-adv-x="1041" d="M0 -387q0 66 55.5 104.5t132.5 38.5q41 0 73 -12q8 48 12 113l128 -9q-12 -125 -24 -184l53 -74q18 14 54 39t42 30l100 -75l43 44v58h-20q-61 0 -104 37.5t-43 93.5t43 94t104 38q62 0 105 -38t43 -94v-206l-160 -147l-113 80l-128 -88q-45 72 -67 95q-65 -94 -153 -94 q-68 0 -122 47.5t-54 108.5zM92 741q29 151 124 236t243 85q46 0 101.5 -15.5t91.5 -27.5t81.5 -5t85.5 46l84 -125q-71 -69 -166 -67q-53 1 -147 32.5t-131 31.5q-42 0 -86 -21.5t-69 -55.5q546 -25 546 -266v-449q0 -30 -5 -52t-12 -37t-24 -25t-30 -15t-42.5 -7.5 t-48.5 -3t-60 -0.5l-140 329q-48 -44 -114 -51t-125 26q-73 42 -94.5 123.5t19.5 152.5q42 73 123 94.5t155 -20.5q59 -33 89 -106l133 -331v348q0 34 -16 60.5t-42 45t-69.5 31.5t-88 20.5t-109.5 12t-121.5 5.5t-135.5 1zM128 -387q0 -23 14.5 -42.5t33.5 -19.5 q26 0 61 91q-26 18 -49 18q-60 0 -60 -47zM256 454.5q11 -39.5 46 -60.5q35 -20 73 -9.5t58 45.5q21 36 11.5 75.5t-45.5 59.5t-74 9t-60 -47q-20 -33 -9 -72.5zM592 -183q0 -24 17 -41t40 -17q24 0 42.5 17t18.5 41t-18.5 41t-42.5 17q-23 0 -40 -17t-17 -41z" />
<glyph unicode="&#xe11;" horiz-adv-x="1387" d="M53 689q-1 56 7.5 103.5t30 96.5t65 92.5t107.5 78.5l133 -85q11 8 54.5 38.5t64.5 44.5q47 -16 84 -40.5t59 -50.5t36 -56t19.5 -55t6.5 -50q-85 -214 -99 -284v-189q7 27 19.5 71.5t47.5 160.5t67 207t71 172t67 95l22 4q77 0 136.5 -21.5t93 -52.5t55 -73t28 -76.5 t6.5 -68.5v-751h-181v751q0 96 -85 128q-35 -3 -86.5 -132t-130.5 -369.5t-135 -377.5h-172v461q0 12 20.5 62t43 99.5t48 103t26.5 56.5q9 21 -21 82t-52 75l-110 -55l-126 60q-45 -29 -63 -57q28 6 44 6q85 0 144 -59.5t59 -144.5q0 -84 -59.5 -143.5t-143.5 -59.5 q-83 0 -141 59.5t-60 143.5zM157 689q0 -41 28.5 -69t68.5 -28q41 0 70 28t29 69t-29 70t-70 29q-40 0 -68.5 -29t-28.5 -70z" />
<glyph unicode="&#xe12;" horiz-adv-x="1684" d="M154 0v715q0 32 6.5 67t28 81.5t56 85t97 72t144.5 47.5l120 -93l124 92q84 -13 147 -45.5t97 -70t55 -84.5t27 -81t6 -67v-311q88 -11 165.5 -82t125.5 -160v861h178v-908q0 -41 -7 -66t-27.5 -44.5t-61 -27t-106.5 -5.5q-42 100 -118.5 192.5t-150.5 113.5v-183 q0 -61 -53 -92t-126 -31q-84 0 -131 59.5t-54 148.5q-7 98 46 159.5t142 69.5v294q0 37 -3.5 62.5t-15 59.5t-39.5 59t-72 40l-148 -76l-145 71q-32 -10 -55.5 -24t-37.5 -34.5t-22 -36t-11 -42.5t-3.5 -39t-0.5 -40v-518l212 210q-62 20 -102 74t-40 121q0 85 59 144 t142 59q85 0 144.5 -59t59.5 -144q0 -80 -48 -131l-432 -463h-172zM505 594q0 -41 28.5 -69t68.5 -28q41 0 70 28t29 69t-29 70t-70 29q-40 0 -68.5 -29t-28.5 -70zM792 189q3 -46 33 -70.5t57 -24.5q2 0 2 43v150q-30 1 -62.5 -26t-29.5 -72z" />
<glyph unicode="&#xe13;" horiz-adv-x="1677" d="M119 720q1 7 4 19.5t16.5 48t32.5 67.5t55.5 71.5t82.5 68t116 48t153 19.5q81 0 148 -16.5t111 -42t77.5 -59.5t51.5 -66t29.5 -65t14.5 -53t3 -33l1 -515q66 96 241 160q32 12 54 35t28 40l5 17v563h178v-566q0 -18 -70 -86q56 -24 90 -74t34 -113q0 -84 -59.5 -143.5 t-143.5 -59.5q-83 0 -142 60t-59 143v15q-40 -21 -71 -49.5t-46 -54.5t-25 -49t-12 -36l-2 -14h-179v708q0 18 -3 39t-18.5 55.5t-40.5 61t-75 46.5t-117 20q-117 0 -188 -51t-78 -97l182 -31v-80q-5 -2 -14 -6t-32 -20.5t-40.5 -36.5t-31.5 -55t-13 -75l2 -96q9 2 25 2 q85 0 144 -59t59 -142q0 -85 -59 -144t-144 -59q-84 0 -143.5 59.5t-59.5 143.5v268q0 43 18 83.5t44 67t52 47t44 29.5l18 10zM297 183q0 -41 28 -70t69 -29t70 29t29 70q0 40 -29 68.5t-70 28.5t-69 -28.5t-28 -68.5zM1275 188q0 -41 28.5 -69.5t68.5 -28.5q41 0 70 28.5 t29 69.5t-29 70t-70 29q-40 0 -68.5 -29t-28.5 -70z" />
<glyph unicode="&#xe14;" horiz-adv-x="1198" d="M154 0v717q0 32 14 73.5t48.5 90t84 88.5t128.5 66.5t173 26.5q97 0 176 -26.5t127 -66t81 -88.5t45.5 -89.5t12.5 -72.5v-719h-177v700q0 30 -7.5 60t-26.5 61.5t-48 55.5t-76.5 39.5t-106.5 15.5q-70 0 -125 -23t-85.5 -59t-45.5 -74.5t-15 -75.5v-511l212 210 q-62 20 -102 74t-40 121q0 85 59 144t142 59q85 0 144.5 -59t59.5 -144q0 -80 -48 -131l-432 -463h-172zM505 594q0 -41 28.5 -69t68.5 -28q41 0 70 28t29 69t-29 70t-70 29q-40 0 -68.5 -29t-28.5 -70z" />
<glyph unicode="&#xe15;" horiz-adv-x="1198" d="M154 0v715q0 32 6.5 67t27.5 81.5t54.5 85t94.5 72t141 47.5l119 -93l125 92q82 -13 143.5 -45.5t94.5 -70t53 -84.5t25.5 -81t5.5 -67v-719h-177v707q0 29 -1.5 49t-8 49t-18.5 49.5t-36 41t-57 32.5l-149 -76l-145 71q-30 -10 -52 -24t-35 -34.5t-20.5 -35.5t-10 -43 t-3 -38.5t-0.5 -40.5v-518l212 210q-62 20 -102 74t-40 121q0 85 59 144t142 59q85 0 144.5 -59t59.5 -144q0 -80 -48 -131l-432 -463h-172zM505 594q0 -41 28.5 -69t68.5 -28q41 0 70 28t29 69t-29 70t-70 29q-40 0 -68.5 -29t-28.5 -70z" />
<glyph unicode="&#xe16;" horiz-adv-x="1167" d="M119 720q1 7 4 19.5t16.5 48t32.5 67.5t55.5 71.5t82.5 68t116 48t153 19.5q81 0 148 -16.5t111 -42t77.5 -59.5t51.5 -66t29.5 -65t14.5 -53t3 -33v-727h-178v708q1 16 -2.5 38.5t-18.5 56t-40.5 61t-75.5 47t-117 19.5q-117 0 -188 -51t-78 -97l182 -31v-80 q-5 -2 -14 -6t-31.5 -20.5t-40 -36.5t-31.5 -55t-14 -75l2 -96q9 2 25 2q85 0 144 -59t59 -142q0 -85 -59 -144t-144 -59q-84 0 -143.5 59.5t-59.5 143.5v268q0 43 18 83.5t44 67t52 47t44 29.5l18 10zM297 183q0 -41 28 -70t69 -29t70 29t29 70q0 40 -29 68.5t-70 28.5 t-69 -28.5t-28 -68.5z" />
<glyph unicode="&#xe17;" horiz-adv-x="1259" d="M85 841q0 85 59 144t144 59q84 0 144 -59.5t60 -143.5v-474q16 59 42 149.5t90 272.5t108 247h55q78 0 137.5 -21.5t93 -52.5t54.5 -73t27.5 -76.5t6.5 -68.5v-744h-181v727q0 132 -113 157q-21 -6 -49.5 -93t-102.5 -318.5t-168 -472.5h-178v642q-9 -2 -26 -2 q-85 0 -144 59t-59 142zM189 841q0 -40 29 -68.5t70 -28.5t69.5 28.5t28.5 68.5q0 41 -28.5 70t-69.5 29t-70 -29t-29 -70z" />
<glyph unicode="&#xe18;" horiz-adv-x="1068" d="M85 713q31 157 128 253t253 96q63 0 151.5 -26t123.5 -26q72 0 138 77l80 -133q-86 -73 -188 -73q-60 -1 -161.5 21t-143.5 21q-51 -2 -95 -25.5t-69 -66.5q230 -10 338 -32q269 -57 275 -231v-428q0 -26 -2.5 -46t-10.5 -35t-14.5 -25t-23 -16.5t-27.5 -10t-36 -5 t-40.5 -2t-48.5 -0.5h-495v631h177v-500h318q11 0 15.5 1.5t8 11t3.5 30.5v370q-2 31 -17.5 56t-38.5 42.5t-59 31t-71 21.5t-82 13t-85 7t-87 2.5t-80.5 -0.5t-74 -2.5t-59.5 -1.5z" />
<glyph unicode="&#xe19;" horiz-adv-x="1204" d="M85 841q0 85 59 144t144 59q84 0 144 -59.5t60 -143.5v-659q121 126 291 190q32 12 54 35t27 40l6 17v563h178v-566q0 -18 -70 -86q56 -24 90.5 -74t34.5 -113q0 -84 -59.5 -143.5t-144.5 -59.5q-83 0 -142 60t-59 143v15q-64 -33 -117.5 -84t-75.5 -85l-22 -34h-169v642 q-9 -2 -26 -2q-85 0 -144 59t-59 142zM189 841q0 -40 29 -68.5t70 -28.5t69.5 28.5t28.5 68.5q0 41 -28.5 70t-69.5 29t-70 -29t-29 -70zM802 188q0 -41 28.5 -69.5t68.5 -28.5q41 0 70 28.5t29 69.5t-29 70t-70 29q-40 0 -68.5 -29t-28.5 -70z" />
<glyph unicode="&#xe1a;" horiz-adv-x="1262" d="M85 841q0 85 59 144t144 59q84 0 144 -59.5t60 -143.5v-710h414q10 0 14.5 1.5t8 11t3.5 30.5v853h177v-887q0 -26 -2.5 -46t-10.5 -35t-14.5 -25t-23 -16.5t-27.5 -10t-36 -5t-40.5 -2t-48.5 -0.5h-592v642q-9 -2 -26 -2q-85 0 -144 59t-59 142zM189 841q0 -40 29 -68.5 t70 -28.5t69.5 28.5t28.5 68.5q0 41 -28.5 70t-69.5 29t-70 -29t-29 -70z" />
<glyph unicode="&#xe1b;" horiz-adv-x="1262" d="M85 841q0 85 59 144t144 59q84 0 144 -59.5t60 -143.5v-710h414q10 0 14.5 1.5t8 11t3.5 30.5v1260h177v-1294q0 -26 -2.5 -46t-10.5 -35t-14.5 -25t-23 -16.5t-27.5 -10t-36 -5t-40.5 -2t-48.5 -0.5h-592v642q-9 -2 -26 -2q-85 0 -144 59t-59 142zM189 841 q0 -40 29 -68.5t70 -28.5t69.5 28.5t28.5 68.5q0 41 -28.5 70t-69.5 29t-70 -29t-29 -70z" />
<glyph unicode="&#xe1c;" horiz-adv-x="1175" d="M154 0v841q0 84 59.5 143.5t143.5 59.5q85 0 144 -59t59 -144q0 -83 -59 -142t-144 -59q-17 0 -26 2v-439l256 376l256 -378v826h179v-1027h-179l-256 389l-256 -389h-177zM259 841q0 -40 28.5 -68.5t69.5 -28.5t70 28.5t29 68.5q0 41 -29 70t-70 29t-69.5 -29t-28.5 -70 z" />
<glyph unicode="&#xe1d;" horiz-adv-x="1175" d="M154 0v841q0 84 59.5 143.5t143.5 59.5q85 0 144 -59t59 -144q0 -83 -59 -142t-144 -59q-17 0 -26 2v-439l256 376l256 -378v1233h179v-1434h-179l-256 389l-256 -389h-177zM259 841q0 -40 28.5 -68.5t69.5 -28.5t70 28.5t29 68.5q0 41 -29 70t-70 29t-69.5 -29 t-28.5 -70z" />
<glyph unicode="&#xe1e;" horiz-adv-x="1358" d="M85 841q0 85 59 144t144 59q84 0 144 -59.5t60 -143.5v-542l257 725h21l257 -722v725h178v-1027h-181l-263 744l-266 -744h-181v642q-9 -2 -26 -2q-85 0 -144 59t-59 142zM189 841q0 -40 29 -68.5t70 -28.5t69.5 28.5t28.5 68.5q0 41 -28.5 70t-69.5 29t-70 -29t-29 -70z " />
<glyph unicode="&#xe1f;" horiz-adv-x="1358" d="M85 841q0 85 59 144t144 59q84 0 144 -59.5t60 -143.5v-542l257 725h21l257 -722v1132h178v-1434h-181l-263 744l-266 -744h-181v642q-9 -2 -26 -2q-85 0 -144 59t-59 142zM189 841q0 -40 29 -68.5t70 -28.5t69.5 28.5t28.5 68.5q0 41 -28.5 70t-69.5 29t-70 -29t-29 -70 z" />
<glyph unicode="&#xe20;" horiz-adv-x="1221" d="M68 183q0 83 59 142t144 59q17 0 26 -2l-10 69q0 43 18 83.5t44 67t52 47t44 29.5l18 10l-289 32q1 4 2.5 12t9 31t17.5 46t29 53.5t42.5 57t59 53.5t77.5 46t99.5 31t122.5 12q81 0 148 -16.5t111 -42t77.5 -59.5t51.5 -66t29.5 -65t14.5 -53t3 -33v-727h-177v708 q1 16 -2.5 38.5t-18.5 56t-40.5 61t-75.5 47t-117 19.5q-117 0 -188.5 -51t-78.5 -97l224 -31v-80q-5 -2 -14 -6t-31.5 -20.5t-40 -36.5t-31.5 -55t-14 -75l11 -295q0 -84 -59.5 -143.5t-143.5 -59.5q-85 0 -144 59t-59 144zM172 183q0 -41 29 -70t70 -29t69.5 29t28.5 70 q0 40 -28.5 68.5t-69.5 28.5t-70 -28.5t-29 -68.5z" />
<glyph unicode="&#xe21;" horiz-adv-x="1245" d="M137 841q0 85 59 144t144 59q84 0 143.5 -59.5t59.5 -143.5v-382q109 -24 210 -115.5t163 -188.5v872h176v-908q0 -42 -6.5 -66.5t-27.5 -44t-62 -27t-107 -5.5q-42 92 -145.5 200t-200.5 147v-224q0 -61 -53 -92t-126 -31q-101 0 -154 64t-60 161q-7 114 52 184.5 t165 78.5v178q-9 -2 -27 -2q-85 0 -144 59t-59 142zM241 841q0 -40 29 -68.5t70 -28.5t69 28.5t28 68.5q0 41 -28 70t-69 29t-70 -29t-29 -70zM266 224q2 -64 32 -97t67 -33l2 43v191q-39 1 -71 -26.5t-30 -77.5z" />
<glyph unicode="&#xe22;" horiz-adv-x="1153" d="M135 744q0 113 59 197.5t166 101.5q15 3 46 3q81 -4 138 -63t57 -140q0 -84 -59.5 -143.5t-143.5 -59.5q-44 0 -81 17q-2 -33 16 -56.5t46 -35t72.5 -18t85.5 -8t94 -1.5h29v-110q-95 0 -162 -13q-50 -16 -86.5 -62t-36.5 -95v-125h419q11 0 15.5 1.5t8 11t3.5 30.5v851 h177v-885q0 -27 -2.5 -47t-10.5 -35t-15 -25.5t-23.5 -17t-27.5 -10t-37 -5t-42 -2t-50 -0.5h-594v239q0 145 169 222q-56 12 -121.5 48.5t-84.5 86.5q-24 60 -24 148zM300 843q0 -41 29 -69t69 -28q41 0 70 28t29 69t-29 70t-70 29q-40 0 -69 -29t-29 -70z" />
<glyph unicode="&#xe23;" horiz-adv-x="967" d="M68 722q29 163 124 252t247 89q53 0 133.5 -25t113.5 -25q62 0 113 59l83 -127q-71 -67 -162 -67q-54 1 -148.5 28.5t-132.5 27.5q-43 0 -87.5 -25.5t-71.5 -65.5q548 -25 548 -276v-381q0 -84 -59.5 -143.5t-143.5 -59.5q-85 0 -144 59t-59 144q0 83 59 142t144 59 q21 0 25 -1v157q0 43 -22 75t-71 51t-93 30.5t-122.5 16t-124 5.5t-130.5 1h-19zM526 186q0 -41 29 -70t70 -29t69 29t28 70q0 40 -28 68.5t-69 28.5t-70 -28.5t-29 -68.5z" />
<glyph unicode="&#xe24;" horiz-adv-x="1167" d="M119 720q1 7 4 19.5t16.5 48t32.5 67.5t55.5 71.5t82.5 68t116 48t153 19.5q81 0 148 -16.5t111 -42t77.5 -59.5t51.5 -66t29.5 -65t14.5 -53t3 -33v-1131h-178v1112q1 16 -2.5 38.5t-18.5 56t-40.5 61t-75.5 47t-117 19.5q-117 0 -188 -51t-78 -97l182 -31v-80 q-5 -2 -14 -6t-31.5 -20.5t-40 -36.5t-31.5 -55t-14 -75l2 -96q9 2 25 2q85 0 144 -59t59 -142q0 -85 -59 -144t-144 -59q-84 0 -143.5 59.5t-59.5 143.5v268q0 43 18 83.5t44 67t52 47t44 29.5l18 10zM297 183q0 -41 28 -70t69 -29t70 29t29 70q0 40 -29 68.5t-70 28.5 t-69 -28.5t-28 -68.5z" />
<glyph unicode="&#xe25;" horiz-adv-x="1158" d="M137 785q13 46 43.5 92t81 89t129 69.5t172.5 26.5q97 0 177 -26.5t127.5 -65.5t80 -87t45 -87.5t12.5 -71.5v-724h-177v222q0 17 -8 58.5t-29.5 103t-53 115t-86 90.5t-120.5 34q-28 -1 -56.5 -11t-57 -30.5t-46.5 -59.5t-18 -92v-44q5 1 24 1q85 0 144 -59t59 -142 q0 -85 -59 -144t-144 -59q-84 0 -143.5 59.5t-59.5 143.5v253q0 29 9 65.5t34.5 82.5t64 82.5t105.5 60.5t151 23q185 -4 290 -202v152q0 38 -13 75.5t-41 74t-82.5 59t-128.5 22.5q-123 0 -202 -58.5t-93 -133.5zM280 186q0 -41 28 -70t69 -29t70 29t29 70q0 40 -29 68.5 t-70 28.5t-69 -28.5t-28 -68.5z" />
<glyph unicode="&#xe26;" horiz-adv-x="1221" d="M68 183q0 83 59 142t144 59q17 0 26 -2l-10 69q0 43 18 83.5t44 67t52 47t44 29.5l18 10l-289 32q1 4 2.5 12t9 31t17.5 46t29 53.5t42.5 57t59 53.5t77.5 46t99.5 31t122.5 12q81 0 148 -16.5t111 -42t77.5 -59.5t51.5 -66t29.5 -65t14.5 -53t3 -33v-1131h-177v1112 q1 16 -2.5 38.5t-18.5 56t-40.5 61t-75.5 47t-117 19.5q-117 0 -188.5 -51t-78.5 -97l224 -31v-80q-5 -2 -14 -6t-31.5 -20.5t-40 -36.5t-31.5 -55t-14 -75l11 -295q0 -84 -59.5 -143.5t-143.5 -59.5q-85 0 -144 59t-59 144zM172 183q0 -41 29 -70t70 -29t69.5 29t28.5 70 q0 40 -28.5 68.5t-69.5 28.5t-70 -28.5t-29 -68.5z" />
<glyph unicode="&#xe27;" horiz-adv-x="1035" d="M51 773q11 38 29 74.5t52.5 76.5t79 69.5t111.5 49t146 19.5q96 0 172 -27t120 -66t72.5 -88t38.5 -89t10 -73v-533q0 -84 -59.5 -143.5t-143.5 -59.5q-85 0 -144 59t-59 144q0 83 59 142t144 59q21 0 26 -1v315q0 39 -10 75t-34 73.5t-73.5 60t-118.5 22.5 q-124 0 -199 -62.5t-91 -139.5zM580 186q0 -41 29 -70t70 -29t69.5 29t28.5 70q0 40 -28.5 68.5t-69.5 28.5t-70 -28.5t-29 -68.5z" />
<glyph unicode="&#xe28;" horiz-adv-x="1198" d="M154 0v722q0 32 14 72.5t48 88.5t83 87.5t128.5 66t174.5 26.5q109 0 197 -32q21 3 44.5 14.5t60 47.5t65.5 91l142 -75q-24 -49 -73 -91.5t-110 -68.5q59 -58 87.5 -120t28.5 -105v-724h-177v705q0 37 -13 74t-41 73.5t-83 59t-128 22.5q-71 0 -126 -22.5t-85 -58.5 t-45 -74t-15 -74v-198l-5 -101q28 152 99 283q26 49 73.5 78.5t103.5 29.5q85 0 144.5 -59t59.5 -144q0 -84 -60 -143.5t-144 -59.5q-96 0 -157 77q-90 -288 -114 -430v-38h-177zM505 594q0 -41 28.5 -69t68.5 -28q41 0 70 28t29 69t-29 70t-70 29q-40 0 -68.5 -29 t-28.5 -70z" />
<glyph unicode="&#xe29;" horiz-adv-x="1256" d="M85 841q0 85 59 144t144 59q84 0 144 -59.5t60 -143.5v-710h414q10 0 14.5 1.5t8 11t3.5 30.5v201q-46 -13 -94 -13q-205 -4 -271 97q-31 47 -31 99q0 73 51 123.5t123 50.5t123 -50.5t51 -123.5q0 -57 -34 -102q42 5 82 34v537h177v-442q49 45 58 132l111 -17 q-10 -76 -55.5 -141.5t-113.5 -113.5v-288q0 -26 -3 -46.5t-6.5 -36.5t-13 -27.5t-16.5 -19.5t-23 -13t-26.5 -8t-33.5 -4.5t-37 -1.5h-44h-592v642q-9 -2 -26 -2q-85 0 -144 59t-59 142zM189 841q0 -40 29 -68.5t70 -28.5t69.5 28.5t28.5 68.5q0 41 -28.5 70t-69.5 29 t-70 -29t-29 -70zM621 558q0 -36 26.5 -61.5t62.5 -25.5t62.5 25.5t26.5 61.5q0 37 -26.5 63t-62.5 26t-62.5 -26t-26.5 -63z" />
<glyph unicode="&#xe2a;" horiz-adv-x="1162" d="M137 785q13 46 43.5 92t81 89t129 69.5t172.5 26.5q115 0 195 -31q22 3 47.5 15t63 46t65.5 84l141 -73q-25 -47 -74 -87.5t-110 -66.5q59 -58 86.5 -119.5t27.5 -105.5v-724h-177v222q0 13 -6 45t-19 80t-37 96.5t-55 91t-78.5 67.5t-103.5 21q-28 -2 -56 -11.5 t-56.5 -30t-46 -60t-17.5 -91.5v-44q5 1 24 1q85 0 144 -59t59 -142q0 -85 -59 -144t-144 -59q-84 0 -143.5 59.5t-59.5 143.5v253q0 29 9 65.5t34.5 82.5t64 82.5t105.5 61t151 22.5q184 -4 290 -195v145q0 38 -13 75.5t-41 74t-82.5 59t-128.5 22.5q-123 0 -202 -58.5 t-93 -133.5zM280 186q0 -41 28 -70t69 -29t70 29t29 70q0 40 -29 68.5t-70 28.5t-69 -28.5t-28 -68.5z" />
<glyph unicode="&#xe2b;" horiz-adv-x="1257" d="M85 841q0 85 59 144t144 59q84 0 144 -59.5t60 -143.5v-553q139 345 269 425q-83 53 -83 157q0 73 61 125.5t148 52.5t148.5 -52.5t61.5 -125.5q0 -52 -27.5 -96t-72.5 -73q56 -50 81.5 -106t25.5 -105v-490h-179v478q0 52 -15.5 96.5t-44.5 65.5q-42 -20 -96 -93.5 t-100.5 -164t-87.5 -177.5t-65 -146l-24 -59h-176l-2 642q-9 -2 -26 -2q-85 0 -144 59t-59 142zM189 841q0 -40 29 -68.5t70 -28.5t69.5 28.5t28.5 68.5q0 41 -28.5 70t-69.5 29t-70 -29t-29 -70zM799 860q0 -35 26 -60t62 -25q38 0 64.5 25t26.5 60q0 36 -26.5 61.5 t-64.5 25.5q-36 0 -62 -25.5t-26 -61.5z" />
<glyph unicode="&#xe2c;" horiz-adv-x="1348" d="M85 841q0 85 59 144t144 59q84 0 144 -59.5t60 -143.5v-553l244 504h34l259 -504v523q-38 -11 -73 -11q-79 0 -147 51.5t-68 134.5t66 133t149 50q44 0 94.5 -21t70.5 -45q28 57 24 138l162 -34q7 -37 -25 -116t-96 -137q7 -14 14 -44t7 -40v-870h-183l-265 575 l-267 -575h-178v642q-9 -2 -26 -2q-85 0 -144 59t-59 142zM189 841q0 -40 29 -68.5t70 -28.5t69.5 28.5t28.5 68.5q0 41 -28.5 70t-69.5 29t-70 -29t-29 -70zM864 986q0 -29 21.5 -58t68.5 -29q40 0 62 28t22 56q0 26 -22.5 56.5t-64.5 30.5q-39 0 -63 -29t-24 -55z" />
<glyph unicode="&#xe2d;" horiz-adv-x="1177" d="M154 785q13 46 44 92t82 89t129.5 69.5t172.5 26.5q98 0 178 -26.5t127.5 -65.5t80 -87t44.5 -87.5t12 -71.5v-584q0 -30 -5 -52t-11 -37t-21.5 -25t-27.5 -15t-39 -7.5t-44 -3t-55 -0.5h-606v483q0 84 59.5 143.5t143.5 59.5q85 0 144 -59t59 -144q0 -83 -59 -142 t-144 -59q-20 0 -25 1v-169h428q10 0 14 1.5t8 11.5t4 30v546q0 30 -7.5 59.5t-26.5 61t-48 55.5t-76.5 39.5t-106.5 15.5q-122 0 -203.5 -59t-95.5 -134zM321 483q0 -40 28 -68.5t69 -28.5t70 28.5t29 68.5q0 41 -29 70t-70 29t-69 -29t-28 -70z" />
<glyph unicode="&#xe2e;" horiz-adv-x="1189" d="M154 858q0 82 115 143t294 61q161 0 277 -72q27 24 56 81t27 78l139 -70q-13 -60 -47.5 -113t-65.5 -79q58 -100 58 -163v-584q0 -30 -5 -52t-11 -37t-22 -25t-28 -15t-39.5 -7.5t-45 -3t-56.5 -0.5h-604l-1 449q0 84 59.5 143.5t143.5 59.5q85 0 144 -59t59 -144 q0 -83 -59.5 -142.5t-143.5 -59.5q-12 0 -21 2v-148h423q12 0 16.5 1.5t8.5 10t4 27.5v565q0 10 -17 78q-113 -59 -256 -63q-101 -2 -169.5 2t-124 18.5t-82 43.5t-26.5 74zM300 449q0 -40 28.5 -68.5t69.5 -28.5t70 28.5t29 68.5q0 41 -29 70t-70 29t-69.5 -29t-28.5 -70z M305 847q2 -17 81 -30.5t165 -12.5q120 3 210 73q-58 57 -198 57q-64 0 -126.5 -15.5t-97.5 -35.5t-34 -36z" />
<glyph unicode="&#xe2f;" horiz-adv-x="1133" d="M137 857q0 73 51 123.5t123 50.5t123 -50.5t51 -123.5q0 -57 -33 -101q137 0 218.5 68t95.5 197v6h178v-1027h-178v746q-124 -87 -281 -87q-130 0 -186 14q-89 22 -132 85q-30 46 -30 99zM222 857q0 -36 26.5 -61.5t62.5 -25.5t62 25.5t26 61.5q0 37 -26 62.5t-62 25.5 t-62.5 -26t-26.5 -62z" />
<glyph unicode="&#xe30;" horiz-adv-x="1010" d="M85 244q0 73 51 123.5t123 50.5t123 -50.5t51 -123.5q0 -59 -32 -101q137 0 218.5 68t95.5 197l159 -26q-14 -99 -81 -177t-162 -118.5t-198 -40.5q-129 0 -185 14q-89 21 -132 85q-31 47 -31 99zM85 826q0 73 51 123.5t123 50.5t123 -50.5t51 -123.5q0 -59 -32 -101 q137 0 218.5 68t95.5 197l159 -26q-14 -99 -81 -177t-162 -118.5t-198 -40.5q-129 0 -185 14q-89 21 -132 85q-31 47 -31 99zM171 244q0 -36 26 -61.5t62 -25.5t62.5 25.5t26.5 61.5q0 37 -26.5 63t-62.5 26t-62 -26t-26 -63zM171 826q0 -36 26 -61.5t62 -25.5t62.5 25.5 t26.5 61.5q0 37 -26.5 63t-62.5 26t-62 -26t-26 -63z" />
<glyph unicode="&#xe31;" d="M-626 1408q0 73 51 123.5t123 50.5t123 -50.5t51 -123.5q0 -58 -33 -101q137 0 218.5 68t95.5 197l159 -26q-14 -99 -80.5 -177t-161.5 -118.5t-198 -40.5q-130 0 -186 14q-89 22 -132 85q-30 46 -30 99zM-541 1408q0 -36 26.5 -61.5t62.5 -25.5t62 25.5t26 61.5 q0 37 -26 63t-62 26t-62.5 -26t-26.5 -63z" />
<glyph unicode="&#xe32;" horiz-adv-x="979" d="M51 778q9 30 16.5 51.5t23 53t33.5 54.5t47.5 48.5t64.5 41t85 26t109 10.5q95 0 169.5 -26.5t115.5 -65t67.5 -88t35 -88.5t8.5 -73v-722h-179v705q0 30 -4 57.5t-18 60t-36.5 56t-63.5 39.5t-95 16q-204 0 -256 -204z" />
<glyph unicode="&#xe33;" horiz-adv-x="979" d="M-532 1393q0 85 59 144t142 59q85 0 144 -59t59 -144q0 -84 -59.5 -143.5t-143.5 -59.5q-83 0 -142 60t-59 143zM-428 1393q0 -41 28.5 -69.5t68.5 -28.5q41 0 70 28.5t29 69.5t-29 70t-70 29q-40 0 -68.5 -29t-28.5 -70zM51 778q9 30 16.5 51.5t23 53t33.5 54.5 t47.5 48.5t64.5 41t85 26t109 10.5q95 0 169.5 -26.5t115.5 -65t67.5 -88t35 -88.5t8.5 -73v-722h-179v705q0 30 -4 57.5t-18 60t-36.5 56t-63.5 39.5t-95 16q-204 0 -256 -204z" />
<glyph unicode="&#xe34;" d="M-1017 1181q24 157 132.5 251t273.5 94q77 0 153.5 -24t144 -69t118 -118t69.5 -163q-205 42 -321.5 57t-254 10t-315.5 -38zM-844 1286q191 12 298 6t255 -29q-34 51 -85 86.5t-103 49.5t-106 17.5t-94 -8.5q-117 -25 -165 -122z" />
<glyph unicode="&#xe35;" d="M-1044 1186q24 157 132.5 251t273.5 94q175 0 314 -106v188h162v-423q4 -14 8 -33q-206 42 -321.5 57t-253 10t-315.5 -38zM-871 1284q191 12 298 6t255 -29q-66 99 -180 139t-220.5 8.5t-152.5 -124.5z" />
<glyph unicode="&#xe36;" horiz-adv-x="1" d="M-1017 1181q24 157 132.5 251t273.5 94q89 0 179 -33q7 67 55.5 111.5t115.5 44.5q73 0 123.5 -50.5t50.5 -123.5q0 -54 -29.5 -98.5t-78.5 -64.5q52 -75 69 -160q-205 42 -321.5 57t-254 10t-315.5 -38zM-844 1286q191 12 298 6t255 -29q-34 51 -85 86.5t-103 49.5 t-106 17.5t-94 -8.5q-117 -25 -165 -122zM-343 1475q0 -36 23.5 -59t58.5 -23q36 0 60 23t24 59q0 35 -24 59t-60 24q-34 0 -58 -24t-24 -59z" />
<glyph unicode="&#xe37;" d="M-1043 1181q24 157 132.5 251t273.5 94q32 0 65 -5v87h162v-135q40 -18 87 -53v188h163v-424q5 -16 8 -32q-205 42 -321.5 57t-254 10t-315.5 -38zM-870 1286q191 12 298 6t255 -29q-34 51 -85 86.5t-102.5 49.5t-105.5 17.5t-94 -8.5q-118 -26 -166 -122z" />
<glyph unicode="&#xe38;" d="M-495 -294q0 73 50.5 124t123.5 51q72 0 125 -51.5t53 -123.5v-324h-178v150q-73 0 -123.5 51t-50.5 123zM-410 -294q0 -36 26 -61.5t63 -25.5q36 0 61.5 25.5t25.5 61.5q0 37 -25.5 63t-61.5 26q-37 0 -63 -26t-26 -63z" />
<glyph unicode="&#xe39;" d="M-804 -294q0 73 50.5 124t123.5 51q72 0 125 -51.5t53 -123.5v-227h94q10 0 14.5 1.5t7.5 11t3 30.5v343h178v-343q0 -26 -2.5 -46t-10.5 -35t-14.5 -25t-23 -16.5t-27.5 -10t-36 -5t-40.5 -2t-48.5 -0.5h-272v150q-73 0 -123.5 51t-50.5 123zM-719 -294q0 -36 26 -61.5 t63 -25.5q36 0 61.5 25.5t25.5 61.5q0 37 -25.5 63t-61.5 26q-37 0 -63 -26t-26 -63z" />
<glyph unicode="&#xe3a;" d="M-365 -249q0 47 34.5 81.5t81.5 34.5q48 0 82 -34t34 -82t-34 -82t-82 -34q-47 0 -81.5 34.5t-34.5 81.5z" />
<glyph unicode="&#xe3f;" horiz-adv-x="1099" d="M114 0v1365h316v145h154v-148q159 -10 244 -105t85 -262q0 -177 -97 -271q165 -95 165 -337q0 -192 -109.5 -290.5t-287.5 -96.5v-157h-154v157h-316zM266 154h164v474h-164v-474zM266 785h164v427h-164v-427zM584 154q43 0 75 4.5t66 19t55.5 39t35 67.5t13.5 103 q0 73 -18 122t-53.5 73.5t-76 34.5t-97.5 11v-474zM584 787q177 20 177 208q0 189 -177 213v-421z" />
<glyph unicode="&#xe40;" horiz-adv-x="662" d="M205 186v843h177v-643q4 1 26 1q85 0 144 -59t59 -142q0 -85 -59 -144t-144 -59q-84 0 -143.5 59.5t-59.5 143.5zM311 186q0 -41 28 -70t69 -29t70 29t29 70q0 40 -29 68.5t-70 28.5t-69 -28.5t-28 -68.5z" />
<glyph unicode="&#xe41;" horiz-adv-x="1122" d="M205 186v843h177v-643q4 1 26 1q85 0 144 -59t59 -142q0 -85 -59 -144t-144 -59q-84 0 -143.5 59.5t-59.5 143.5zM311 186q0 -41 28 -70t69 -29t70 29t29 70q0 40 -29 68.5t-70 28.5t-69 -28.5t-28 -68.5zM666 186v843h177v-643q5 1 26 1q85 0 144 -59t59 -142 q0 -85 -59 -144t-144 -59q-84 0 -143.5 59.5t-59.5 143.5zM771 186q0 -41 28.5 -70t69.5 -29t70 29t29 70q0 40 -29 68.5t-70 28.5t-69.5 -28.5t-28.5 -68.5z" />
<glyph unicode="&#xe42;" horiz-adv-x="735" d="M17 1476q109 263 341 246q45 -2 105.5 -20t99 -30.5t85 -1t84.5 58.5l79 -108q-69 -66 -153 -76t-172 23q-108 31 -141 33t-71 -18.5t-56 -46.5q57 -17 95.5 -32t80 -38t63 -53.5t21.5 -67.5v-959q5 1 25 1q85 0 144.5 -59t59.5 -142q0 -85 -59.5 -144t-144.5 -59 q-84 0 -143.5 59.5t-59.5 143.5v1159q-2 16 -12.5 31t-24.5 25.5t-37 20.5t-42.5 16.5t-47 13.5t-44.5 10t-42.5 8t-32.5 6zM406 186q0 -41 28 -70t69 -29t70 29t29 70q0 40 -29 68.5t-70 28.5t-69 -28.5t-28 -68.5z" />
<glyph unicode="&#xe43;" horiz-adv-x="846" d="M20 1492q17 93 99.5 158t196.5 65q127 0 227 -65t100 -165q0 -91 -7.5 -147t-26 -118.5t-25.5 -93.5v-740q4 1 25 1q85 0 144 -59t59 -142q0 -85 -59 -144t-144 -59q-84 0 -143.5 59.5t-59.5 143.5l2 915q49 90 71.5 175t12.5 209q-7 53 -59.5 90.5t-116.5 37.5 q-38 0 -83 -16.5t-61 -46.5q20 6 52 6q85 0 144 -59t59 -144q0 -84 -59.5 -143.5t-143.5 -59.5q-83 0 -135.5 56t-67.5 132t-1 154zM126 1353q0 -41 29 -69t69 -28q41 0 70 28t29 69t-29 70t-70 29q-40 0 -69 -29t-29 -70zM512 186q0 -41 28 -70t69 -29t70 29t29 70 q0 40 -29 68.5t-70 28.5t-69 -28.5t-28 -68.5z" />
<glyph unicode="&#xe44;" horiz-adv-x="778" d="M17 1695l96 48l99 -376l155 341h46q21 0 33.5 -0.5t38.5 -6t41 -16t28 -32t13 -52.5l-52 -471v-744q5 1 26 1q85 0 144 -59t59 -142q0 -85 -59 -144t-144 -59q-84 0 -143.5 59.5t-59.5 143.5v927q7 38 21 99.5t24.5 108.5t19 95.5t8 78.5t-12.5 39l-137 -288h-121z M444 186q0 -41 28 -70t69 -29t70 29t29 70q0 40 -29 68.5t-70 28.5t-69 -28.5t-28 -68.5z" />
<glyph unicode="&#xe45;" horiz-adv-x="979" d="M51 778q9 30 16.5 51.5t23 53t33.5 54.5t47.5 48.5t64.5 41t85 26t109 10.5q95 0 169.5 -26.5t115.5 -65t67.5 -88t35 -88.5t8.5 -73v-1128h-179v1111q0 30 -4 57.5t-18 60t-36.5 56t-63.5 39.5t-95 16q-189 0 -239 -204z" />
<glyph unicode="&#xe46;" horiz-adv-x="1375" d="M341 654q7 146 69 238t196 151l153 -120l151 120q134 -59 194 -130t67 -194v-893q0 -21 -16 -47t-51 -57t-61.5 -53t-76.5 -55.5t-65.5 -43.5t-57.5 -36l-63 101q11 5 59.5 41t101 87t52.5 78v847q0 79 -18 125.5t-67 75.5l-150 -75l-149 77q-11 -6 -21 -20t-22 -36.5 t-16 -28.5q85 0 144 -59.5t59 -144.5q0 -84 -59.5 -143.5t-143.5 -59.5q-96 0 -155 72t-54 183zM452 602q0 -41 29 -69t69 -28q41 0 70 28t29 69t-29 70t-70 29q-40 0 -69 -29t-29 -70z" />
<glyph unicode="&#xe47;" d="M-848 1405q0 79 73.5 135.5t163.5 56.5q30 0 94 -5t99 -5q62 0 94 24.5t32 93.5l121 -44q-19 -96 -77.5 -130t-159.5 -34q-30 0 -96.5 3.5t-106.5 3.5q-41 0 -79.5 -28.5t-38.5 -70.5q0 -52 43 -82q16 36 42 54.5t76 18.5q18 -1 39.5 -10.5t35.5 -18t42 -27.5 q2 46 38.5 78.5t86.5 32.5q51 0 88 -34t37 -82q0 -49 -38.5 -89.5t-98.5 -40.5q-31 0 -65 15.5t-58.5 34t-54.5 34t-54 15.5q-44 0 -51 -84h-101q-46 20 -86 74.5t-40 110.5zM-375 1333q0 -18 15 -34t34 -16q18 0 33 16t15 34q0 21 -15 37t-33 16q-20 0 -34.5 -15.5 t-14.5 -37.5z" />
<glyph unicode="&#xe48;" d="M-323 1707v309h163v-309h-163z" />
<glyph unicode="&#xe49;" d="M-594 2021q0 65 45 109t109 44q62 0 107.5 -44.5t45.5 -108.5q11 -86 -53 -209q112 11 196.5 107.5t97.5 236.5l118 -33q-6 -55 -25.5 -109.5t-64 -117t-108.5 -108t-169 -74t-236 -23.5v50q49 16 86 52t32 78q-16 -4 -27 -4q-64 0 -109 44.5t-45 109.5zM-519 2021 q0 -32 23 -53.5t56 -21.5t56.5 21.5t23.5 53.5t-23.5 54t-56.5 22t-56 -22t-23 -54z" />
<glyph unicode="&#xe4a;" d="M-727 1860q0 82 40 159.5t131 125.5l114 -80q54 39 114 79q47 -20 81 -52t51 -67t24.5 -65.5t7.5 -58.5q-10 -78 -15 -100q57 20 81.5 143t8.5 196h113q3 -18 3.5 -45.5t-3.5 -70t-14 -84.5t-32.5 -87t-54 -81t-83 -64t-115.5 -37l-58 27q21 25 37.5 82t17.5 116 q-3 105 -51 150q-15 -9 -56.5 -33t-58.5 -33l-112 66q-10 -8 -21.5 -34.5t-9.5 -40.5h19q64 0 108 -44t44 -108q0 -63 -44.5 -109t-107.5 -46q-53 0 -94.5 33t-54.5 81q-10 31 -10 82zM-637 1821q0 -29 20 -49.5t49 -20.5q26 0 45.5 20.5t19.5 49.5q0 26 -19.5 44.5 t-45.5 18.5q-29 0 -49 -18t-20 -45z" />
<glyph unicode="&#xe4b;" d="M-484 1826v109h157v140h161v-140h157v-109h-157v-140h-161v140h-157z" />
<glyph unicode="&#xe4c;" d="M-471 1690q0 148 196 186q53 11 88.5 22.5t73.5 34.5t62 61t36 93l158 -36q-9 -51 -32.5 -90t-52.5 -64t-75 -45t-85 -30.5t-96 -22.5q56 -44 56 -111q0 -64 -45.5 -106.5t-119.5 -42.5q-75 0 -120.5 43.5t-43.5 107.5zM-379 1684q0 -31 21.5 -52t52.5 -21q29 -1 51 21 t22 51q0 31 -21 52t-52 21q-29 0 -51.5 -21.5t-22.5 -50.5z" />
<glyph unicode="&#xe4d;" d="M-532 1393q0 85 59 144t142 59q85 0 144 -59t59 -144q0 -84 -59.5 -143.5t-143.5 -59.5q-83 0 -142 60t-59 143zM-428 1393q0 -41 28.5 -69.5t68.5 -28.5q41 0 70 28.5t29 69.5t-29 70t-70 29q-40 0 -68.5 -29t-28.5 -70z" />
<glyph unicode="&#xe4e;" d="M-708 1347q0 99 143 150q-51 44 -51 95q0 156 215 156q37 0 101.5 -8t96.5 -8q76 0 194 75l4 -88q-88 -67 -220 -67q-35 0 -95 7.5t-88 7.5q-49 0 -49 -75q0 -70 140 -70q46 0 131 28l27 -94q-68 -19 -141 -22q-105 3 -178 -18t-73 -69q0 -33 37 -51.5t98 -18.5 q53 0 140 23l25 -92q-91 -24 -165 -24q-49 0 -94.5 7t-93 23.5t-76 50.5t-28.5 82z" />
<glyph unicode="&#xe4f;" horiz-adv-x="1133" d="M138 483q0 107 59.5 199t158 144.5t209.5 52.5q117 0 216.5 -55t156.5 -146.5t57 -196.5q0 -106 -60 -197.5t-159 -144t-211 -52.5q-175 0 -301 117t-126 279zM307 483q0 -114 79 -195t179 -81q104 0 182.5 83t78.5 193q0 113 -80.5 194t-180.5 81q-103 0 -180.5 -82.5 t-77.5 -192.5zM393 483q0 69 47 113t125 44t127 -46t49 -111q0 -67 -49 -112t-127 -45q-76 0 -124 45t-48 112z" />
<glyph unicode="&#xe50;" horiz-adv-x="1317" d="M133 420q0 107 40.5 191t113 136t167 79t206.5 27t206.5 -27.5t165.5 -80t111.5 -136t40.5 -189.5q0 -138 -69.5 -240t-188 -151t-267.5 -43q-110 -1 -204.5 26.5t-167 80.5t-113.5 137t-41 190zM307 420q0 -155 98.5 -232t254.5 -77q101 0 177.5 30.5t124 101.5 t47.5 177q0 155 -97.5 233t-251.5 76q-75 1 -138 -17t-111.5 -54.5t-76 -97.5t-27.5 -140z" />
<glyph unicode="&#xe51;" horiz-adv-x="1317" d="M121 415q0 215 145.5 327.5t392.5 112.5q113 0 208 -25.5t169.5 -77t117 -138t42.5 -199.5q0 -61 -9 -115.5t-21.5 -96.5t-37.5 -85t-45 -71.5t-56.5 -66.5t-59 -58.5t-64.5 -58.5l-89 106q110 89 158.5 190t48.5 256q0 315 -362 315q-172 0 -268 -76.5t-96 -238.5 q0 -306 273 -306q15 0 31.5 4.5t18.5 11.5q-68 15 -113.5 71t-45.5 127q0 85 59 144t142 59q85 0 145 -59.5t59 -143.5q-1 -42 -10.5 -84.5t-31.5 -87.5t-55 -79.5t-84.5 -56.5t-114.5 -22q-215 0 -331 108.5t-116 313.5zM563 323q0 -41 28.5 -69.5t68.5 -28.5q41 0 70 28.5 t29 69.5t-29 70t-70 29q-40 0 -68.5 -29t-28.5 -70z" />
<glyph unicode="&#xe52;" horiz-adv-x="1314" d="M3 1053l45 159q107 -38 176.5 -113t74.5 -152v-797q0 -20 3.5 -29.5t7.5 -11t14 -1.5h581q44 0 81.5 44t37.5 101v279q-7 110 -19 142q-21 60 -83 60q-17 0 -35 -23.5t-36 -58.5t-22 -41h-107q-5 6 -23.5 41t-36 58.5t-31.5 23.5q-88 0 -92 -179q49 27 103 27 q85 0 144 -59t59 -144q0 -83 -59.5 -142.5t-143.5 -59.5q-71 0 -129.5 29.5t-89.5 78.5q-39 61 -39 271q0 69 10.5 119.5t36.5 94t76 66t124 22.5q28 0 58.5 -18t45.5 -33t42 -44q73 95 145 95q81 0 137.5 -26t85.5 -74t41 -103.5t12 -128.5v-273q5 -101 -90.5 -179.5 t-204.5 -73.5h-572h-41t-35 1t-32 3t-26.5 5t-23.5 8.5t-17.5 13t-15 18t-9.5 24t-6.5 31t-1.5 38.5l2 785q0 43 -36 76.5t-86 49.5zM544 379q0 -41 29 -69t69 -28q41 0 70 28t29 69t-29 70t-70 29q-40 0 -69 -29t-29 -70z" />
<glyph unicode="&#xe53;" horiz-adv-x="1317" d="M121 425q0 70 10.5 130t36 116t64.5 95.5t100.5 63t140.5 23.5q126 0 203 -75q67 75 188 75q74 0 132.5 -25t96 -65.5t62 -97t35 -116t10.5 -124.5q0 -127 -38 -226.5t-135 -218.5l-92 109q51 71 70 145.5t19 190.5q0 304 -160 304q-42 0 -76 -69q-9 -19 -14.5 -44 t-7.5 -40l-1 -16v-225h-176v225q-2 58 -24 100q-36 69 -92 69q-178 0 -178 -304q0 -17 1 -38t1 -25q46 27 99 27q85 0 144 -59t59 -144q0 -84 -59.5 -143.5t-143.5 -59.5q-81 0 -145 37.5t-87 97.5q-43 108 -43 307zM299 186q0 -41 28.5 -69t68.5 -28q41 0 70 28t29 69 t-29 70t-70 29q-40 0 -68.5 -29t-28.5 -70z" />
<glyph unicode="&#xe54;" horiz-adv-x="1315" d="M85 430q0 195 153 304t404 109h271q60 0 101.5 43t60 111.5t21.5 159.5h174q0 -116 -39.5 -214t-122.5 -161t-195 -63h-271q-171 0 -276 -77.5t-105 -211.5q0 -87 28 -148.5t81 -94.5t119 -47.5t153 -14.5h59q-161 88 -215 204q-18 39 -18 87q0 85 59 144.5t142 59.5 q85 0 144 -59.5t59 -144.5q0 -62 -34.5 -112.5t-91.5 -74.5q79 -53 165.5 -77t132.5 -24h132v-128h-534q-99 0 -180.5 13t-153 44t-120 79.5t-76 123t-27.5 170.5zM572 416q0 -41 28.5 -69t68.5 -28q41 0 70 28t29 69t-29 70t-70 29q-40 0 -68.5 -29t-28.5 -70z" />
<glyph unicode="&#xe55;" horiz-adv-x="1315" d="M85 430q0 170 127.5 278t331.5 132h9q-27 41 -27 102q0 85 59 144t142 59q85 0 144 -59t59 -144q0 -51 -25 -99h8q90 0 136.5 87.5t46.5 226.5h174q0 -115 -39.5 -213t-122.5 -161.5t-195 -63.5h-271q-166 0 -273.5 -77.5t-107.5 -211.5q0 -87 28 -148.5t81 -94.5 t119 -47.5t153 -14.5h59q-161 88 -215 204q-18 39 -18 87q0 85 59 144.5t142 59.5q85 0 144 -59.5t59 -144.5q0 -62 -34.5 -112.5t-91.5 -74.5q79 -53 165.5 -77t132.5 -24h132v-128h-534q-99 0 -180.5 13t-153 44t-120 79.5t-76 123t-27.5 170.5zM572 416q0 -41 28.5 -69 t68.5 -28q41 0 70 28t29 69t-29 70t-70 29q-40 0 -68.5 -29t-28.5 -70zM630 942q0 -41 28.5 -69t68.5 -28q41 0 70 28t29 69t-29 70t-70 29q-40 0 -68.5 -29t-28.5 -70z" />
<glyph unicode="&#xe56;" horiz-adv-x="1320" d="M-20 1082l42 142q198 -19 288.5 -130t97.5 -304q126 63 276 63q248 0 375 -118.5t127 -321.5q0 -207 -146 -318.5t-388 -111.5q-182 0 -290.5 76.5t-108.5 218.5q0 85 59 144t142 59q85 0 144 -59t59 -144q0 -54 -26.5 -100.5t-70.5 -73.5q48 -5 92 -5q160 0 259 86 t99 228q0 153 -83.5 234.5t-242.5 81.5q-87 0 -174 -34.5t-99 -92.5h-158v76q0 12 0.5 36t0.5 37q0 51 -6 94t-24 89t-47 77.5t-79.5 51.5t-117.5 19zM357 278q0 -41 28.5 -69t68.5 -28q41 0 70 28t29 69t-29 70t-70 29q-40 0 -68.5 -29t-28.5 -70z" />
<glyph unicode="&#xe57;" horiz-adv-x="1339" d="M77 425q0 64 7.5 120t29 114.5t56.5 99.5t94 67t137 26q75 0 169 -106q88 106 167 106q65 0 115.5 -16.5t83.5 -47t55 -67.5t33 -86t15.5 -93.5t4.5 -97.5q0 -133 -49 -325q31 12 54.5 33.5t39.5 47.5t27.5 66.5t17.5 78.5t9.5 95.5t4.5 105.5t1 120q0 328 184 481 l87 -132q-116 -76 -116 -349q0 -424 -155 -589q-21 -22 -45 -39t-49.5 -26.5t-47 -16t-48 -8.5t-40 -2.5t-36 0t-23.5 0.5h-39l-41 70q56 75 73 164t17 225q0 39 -1.5 66.5t-5.5 63.5t-13 60.5t-23 47t-37 34t-53 11.5q-26 0 -46 -24t-30.5 -60t-15.5 -70t-5 -61v-51h-142 v51q0 23 -5 56t-15.5 70.5t-30.5 63t-46 25.5q-47 0 -78.5 -27t-45.5 -76t-19 -94.5t-5 -104.5q0 -70 8 -65q46 27 99 27q85 0 144 -59t59 -144q0 -84 -59.5 -143.5t-143.5 -59.5q-80 0 -141.5 36.5t-88.5 95.5q-53 117 -53 312zM263 184q0 -41 28.5 -69t68.5 -28 q41 0 70 28t29 69t-29 70t-70 29q-40 0 -68.5 -29t-28.5 -70z" />
<glyph unicode="&#xe58;" horiz-adv-x="1315" d="M121 415q0 129 72 227t193.5 148t273.5 50h270q83 0 137 90.5t54 197.5l174 -10q0 -97 -45 -189t-130.5 -153t-189.5 -61h-270q-149 0 -256 -81.5t-107 -218.5q0 -233 111 -294q-4 19 -4 36q0 73 55 128.5t147 55.5q37 0 68 -13.5t47.5 -28t45.5 -46t44 -45.5 q54 -52 85 -75.5t51 -23.5q24 0 39 23t21 56l-19 -2q-83 0 -142 60t-59 143q0 85 59 144t142 59q84 0 142.5 -59t60.5 -144q1 -48 -3.5 -97t-20.5 -106t-42 -100t-72 -72t-106 -29q-40 0 -76 17.5t-58 39t-62 63t-68 66.5q-14 12 -32 23.5t-30 17t-15 5.5q-19 0 -31 -30.5 t-8 -60.5q2 -20 9.5 -40t12.5 -30.5t20.5 -36.5t20.5 -34h-101q-205 0 -306.5 116t-101.5 314zM891 389q0 -41 28.5 -69t68.5 -28q41 0 70 28t29 69t-29 70t-70 29q-40 0 -68.5 -29t-28.5 -70z" />
<glyph unicode="&#xe59;" horiz-adv-x="1314" d="M104 423q0 69 10 128t35 113.5t63.5 93t99 61t137.5 22.5q80 0 146.5 -50t109.5 -144q-1 85 37 148.5t89 61.5q42 -1 83.5 -33.5t67.5 -70.5t51 -69.5t40 -31.5q27 0 46.5 53.5t27 127.5t6 151.5t-12.5 124.5l166 12q3 -57 4 -110t-3 -117t-12.5 -117.5t-26.5 -105.5 t-43.5 -87.5t-64.5 -57.5t-88 -21q-44 1 -80 28t-55.5 59t-43 59t-45.5 28q-22 -7 -36 -41t-12 -82q5 -94 86 -216.5t162 -175.5q28 -16 60 -28t50 -16l18 -4l-24 -145q-298 62 -473 468q-24 55 -45 96t-51 85t-64 68t-70 24q-176 0 -176 -289q0 -72 9 -116q27 40 71 63.5 t94 23.5q85 0 144 -59t59 -144q0 -84 -59.5 -143.5t-143.5 -59.5q-66 0 -122.5 27t-96.5 71t-68.5 101t-42 117.5t-13.5 118.5zM350 191q0 -41 28.5 -69t68.5 -28q41 0 70 28t29 69t-29 70t-70 29q-40 0 -68.5 -29t-28.5 -70z" />
<glyph unicode="&#xe5a;" horiz-adv-x="1402" d="M137 857q0 73 51 123.5t123 50.5t123 -50.5t51 -123.5q0 -57 -33 -101q137 0 218.5 68t95.5 197v6h178v-1027h-178v746q-124 -87 -281 -87q-130 0 -186 14q-89 22 -132 85q-30 46 -30 99zM222 857q0 -36 26.5 -61.5t62.5 -25.5t62 25.5t26 61.5q0 37 -26 62.5t-62 25.5 t-62.5 -26t-26.5 -62zM1051 0v1027h180v-1027h-180z" />
<glyph unicode="&#xe5b;" horiz-adv-x="1751" d="M137 536q0 170 68 273.5t181 103.5q93 0 150.5 -73.5t57.5 -185.5q0 -50 -14 -99t-51 -88.5t-90 -39.5q-54 0 -88.5 41t-34.5 104q0 60 34 102.5t89 42.5q27 0 41 -7q-7 49 -32.5 75t-61.5 26q-62 0 -102 -70.5t-40 -179.5q0 -138 53 -224t133 -86q97 0 163.5 118.5 t66.5 302.5v28l-1 66l77 -36l90 -175l82 235l85 -206l69 145l85 -142q9 13 26 35t22 28h164q133 -4 206 22l14 -23q-70 -70 -215 -96h-130l-96 -140l-70 118q-11 -24 -43 -90t-44 -93l-68 178l-75 -205l-92 179q-30 -164 -116 -258t-200 -94q-121 0 -204.5 108t-88.5 280z M391 572q0 -30 13.5 -51t32.5 -21q22 0 35.5 21t13.5 51t-13 50.5t-36 20.5q-19 0 -32.5 -21t-13.5 -50z" />
<glyph unicode="&#x2000;" horiz-adv-x="1095" />
<glyph unicode="&#x2001;" horiz-adv-x="2191" />
<glyph unicode="&#x2002;" horiz-adv-x="1095" />
<glyph unicode="&#x2003;" horiz-adv-x="2191" />
<glyph unicode="&#x2004;" horiz-adv-x="730" />
<glyph unicode="&#x2005;" horiz-adv-x="547" />
<glyph unicode="&#x2006;" horiz-adv-x="365" />
<glyph unicode="&#x2007;" horiz-adv-x="365" />
<glyph unicode="&#x2008;" horiz-adv-x="273" />
<glyph unicode="&#x2009;" horiz-adv-x="438" />
<glyph unicode="&#x200a;" horiz-adv-x="121" />
<glyph unicode="&#x2010;" horiz-adv-x="1001" d="M171 483v119h660v-119h-660z" />
<glyph unicode="&#x2011;" horiz-adv-x="1001" d="M171 483v119h660v-119h-660z" />
<glyph unicode="&#x2012;" horiz-adv-x="1001" d="M171 483v119h660v-119h-660z" />
<glyph unicode="&#x2013;" horiz-adv-x="1001" d="M171 485v119h660v-119h-660z" />
<glyph unicode="&#x2014;" horiz-adv-x="1271" d="M171 485v119h930v-119h-930z" />
<glyph unicode="&#x2018;" horiz-adv-x="547" d="M138 1126q0 -56 24 -97q33 -56 99 -56q49 0 82.5 32.5t33.5 79.5q0 50 -33.5 83t-82.5 33q-2 0 5 23t27 57.5t47 59.5l-9 48q-91 -47 -142 -119.5t-51 -143.5z" />
<glyph unicode="&#x2019;" horiz-adv-x="547" d="M137 1273q0 47 33.5 80t82.5 33q65 0 99 -57q23 -39 23 -97q0 -71 -50.5 -143.5t-141.5 -119.5l-9 48q27 25 47 59.5t27 57.5t5 23q-49 0 -82.5 33t-33.5 83z" />
<glyph unicode="&#x201c;" horiz-adv-x="832" d="M167 1125q0 -57 24 -98q33 -56 99 -56q49 0 82.5 33t33.5 80q0 50 -33.5 83t-82.5 33q-2 0 5 23t27 57.5t47 59.5l-9 48q-91 -47 -142 -119.5t-51 -143.5zM457 1125q0 -57 24 -98q33 -56 99 -56q49 0 82.5 33t33.5 80q0 50 -33.5 83t-82.5 33q-2 0 5 23t27 57.5t47 59.5 l-9 48q-91 -47 -142 -119.5t-51 -143.5z" />
<glyph unicode="&#x201d;" horiz-adv-x="819" d="M123 1186q0 -50 33.5 -83t82.5 -33q2 0 -5 -23t-27 -57.5t-47 -59.5l9 -48q91 47 142 119.5t51 143.5q0 56 -24 97q-34 57 -99 57q-49 0 -82.5 -33t-33.5 -80zM413 1186q0 -50 33.5 -83t82.5 -33q2 0 -5 -23t-26.5 -57.5t-46.5 -59.5l8 -48q91 47 142 119.5t51 143.5 q0 56 -24 97q-34 57 -99 57q-49 0 -82.5 -33t-33.5 -80z" />
<glyph unicode="&#x2022;" horiz-adv-x="725" d="M154 561q0 86 61 146.5t149 60.5q86 0 147 -61t61 -146q0 -88 -61 -148.5t-147 -60.5q-89 0 -149.5 60.5t-60.5 148.5z" />
<glyph unicode="&#x2026;" horiz-adv-x="1331" d="M137 109q0 45 35.5 80t80.5 35q43 0 78.5 -35.5t35.5 -79.5q0 -45 -35.5 -80.5t-78.5 -35.5q-45 0 -80.5 35t-35.5 81zM529 109q0 45 35.5 80t80.5 35q43 0 78.5 -35.5t35.5 -79.5q0 -45 -35.5 -80.5t-78.5 -35.5q-45 0 -80.5 35t-35.5 81zM922 109q0 45 35.5 80t80.5 35 q43 0 78.5 -35.5t35.5 -79.5q0 -45 -35.5 -80.5t-78.5 -35.5q-45 0 -80.5 35t-35.5 81z" />
<glyph unicode="&#x202f;" horiz-adv-x="438" />
<glyph unicode="&#x205f;" horiz-adv-x="547" />
<glyph unicode="&#x20ac;" horiz-adv-x="1314" d="M137 478v153h93v58q0 35 2 52h-95v153h116q40 161 124 280q73 99 170 156.5t209 57.5q116 0 226 -72.5t192 -201.5l-131 -78q-56 90 -130.5 145t-156.5 55q-148 0 -254 -154q-60 -82 -92 -188h416v-153h-442v-52q0 -41 2 -58h440v-153h-416q28 -100 92 -186 q104 -152 254 -152q76 0 152.5 54.5t137.5 151.5l132 -80q-84 -133 -194.5 -206.5t-227.5 -73.5q-112 0 -210 58.5t-169 156.5q-82 117 -123 277h-117z" />
<glyph unicode="&#x25fc;" horiz-adv-x="1066" d="M0 0v1067h1067v-1067h-1067z" />
<glyph unicode="&#xee0d;" horiz-adv-x="1621" d="M102 720q1 4 2.5 12t9 31t17.5 46t29 53.5t42.5 57t59 53.5t77.5 46t99.5 31t122.5 12q81 0 148 -16.5t111 -42t78 -59.5t52 -66t29.5 -65t14.5 -53t3 -33v-613h268q10 0 14.5 1.5t7.5 11t3 30.5v870h178v-887q0 -26 -2.5 -46t-10.5 -35t-14.5 -25t-23 -16.5t-27.5 -10 t-36 -5t-40.5 -2t-48.5 -0.5h-446v708q1 16 -2.5 38.5t-18.5 56t-40.5 61t-75.5 47t-117 19.5q-117 0 -188 -51t-78 -97l182 -31v-80q-5 -2 -14 -6t-31.5 -20.5t-40 -36.5t-31.5 -55t-14 -75l2 -96q9 2 25 2q85 0 144 -59t59 -142q0 -85 -59 -144t-144 -59 q-84 0 -143.5 59.5t-59.5 143.5v268q0 43 18 83.5t44 67t52 47t44 29.5l18 10zM280 183q0 -41 28 -70t69 -29t70 29t29 70q0 40 -29 68.5t-70 28.5t-69 -28.5t-28 -68.5z" />
<glyph unicode="&#xee10;" horiz-adv-x="1001" d="M92 741q29 151 124 236t243 85q46 0 101.5 -15.5t91.5 -27.5t81.5 -5t85.5 46l84 -125q-71 -69 -166 -67q-53 1 -147 32.5t-131 31.5q-42 0 -86 -21.5t-69 -55.5q546 -25 546 -266v-449q0 -30 -5 -52t-12 -37t-24 -25t-30 -15t-42.5 -7.5t-48.5 -3t-60 -0.5l-140 329 q-48 -44 -114 -51t-125 26q-73 42 -94.5 123.5t19.5 152.5q42 73 123 94.5t155 -20.5q59 -33 89 -106l133 -331v348q0 34 -16 60.5t-42 45t-69.5 31.5t-88 20.5t-109.5 12t-121.5 5.5t-135.5 1zM256 454.5q11 -39.5 46 -60.5q35 -20 73 -9.5t58 45.5q21 36 11.5 75.5 t-45.5 59.5t-74 9t-60 -47q-20 -33 -9 -72.5z" />
<glyph unicode="&#xee31;" d="M-916 1408q0 73 51 123.5t123 50.5t123 -50.5t51 -123.5q0 -58 -33 -101q137 0 218.5 68t95.5 197l159 -26q-14 -99 -80.5 -177t-161.5 -118.5t-198 -40.5q-130 0 -186 14q-89 22 -132 85q-30 46 -30 99zM-831 1408q0 -36 26.5 -61.5t62.5 -25.5t62 25.5t26 61.5 q0 37 -26 63t-62 26t-62.5 -26t-26.5 -63z" />
<glyph unicode="&#xee33;" horiz-adv-x="919" d="M-876 1464q0 84 59 143.5t143 59.5q85 0 144 -59t59 -144q0 -84 -59.5 -143.5t-143.5 -59.5q-83 0 -142.5 60t-59.5 143zM-771 1464q0 -41 28.5 -69t68.5 -28q41 0 70 28t29 69t-29 70t-70 29q-40 0 -68.5 -29t-28.5 -70zM32 778q9 30 16.5 51.5t23 53t33.5 54.5 t47.5 48.5t64.5 41t85 26t109 10.5q95 0 169.5 -26.5t115.5 -65t67.5 -88t35 -88.5t8.5 -73v-722h-179v705q0 30 -4 57.5t-18 60t-36.5 56t-63.5 39.5t-95 16q-204 0 -256 -204z" />
<glyph unicode="&#xee34;" d="M-1256 1181q24 157 132.5 251t273.5 94q77 0 153.5 -24t144 -69t118 -118t69.5 -163q-205 42 -321.5 57t-254 10t-315.5 -38zM-1083 1286q191 12 298 6t255 -29q-34 51 -85 86.5t-102.5 49.5t-105.5 17.5t-94 -8.5q-118 -26 -166 -122z" />
<glyph unicode="&#xee35;" d="M-1307 1186q24 157 132.5 251t273.5 94q175 0 314 -106v188h162v-423q7 -24 9 -33q-205 42 -321.5 57t-254 10t-315.5 -38zM-1134 1284q191 12 298 6t255 -29q-66 99 -180 139t-220.5 8.5t-152.5 -124.5z" />
<glyph unicode="&#xee36;" d="M-1290 1181q24 157 132.5 251t273.5 94q89 0 179 -33q7 67 55.5 111.5t115.5 44.5q73 0 123.5 -50.5t50.5 -123.5q0 -54 -29.5 -98.5t-78.5 -64.5q52 -75 69 -160q-205 42 -321.5 57t-254 10t-315.5 -38zM-1117 1286q191 12 298 6t255 -29q-34 51 -85 86.5t-103 49.5 t-106 17.5t-94 -8.5q-117 -25 -165 -122zM-616 1475q0 -36 23.5 -59t58.5 -23q36 0 59.5 23t23.5 59q0 35 -23.5 59t-59.5 24q-34 0 -58 -24t-24 -59z" />
<glyph unicode="&#xee37;" d="M-1311 1181q24 157 132.5 251t273.5 94q32 0 65 -5v87h162v-135q40 -18 87 -53v188h163v-424q5 -16 8 -32q-205 42 -321.5 57t-254 10t-315.5 -38zM-1137 1286q191 12 297.5 6t254.5 -29q-34 51 -85 86.5t-102.5 49.5t-105.5 17.5t-94 -8.5q-117 -25 -165 -122z" />
<glyph unicode="&#xee38;" d="M-514 -618q0 73 50.5 123.5t123.5 50.5t125.5 -51t52.5 -123v-324h-178v150q-73 0 -123.5 51t-50.5 123zM-428 -618q0 -36 25.5 -61.5t62.5 -25.5q36 0 61.5 25.5t25.5 61.5q0 37 -25.5 63t-61.5 26q-37 0 -62.5 -26t-25.5 -63z" />
<glyph unicode="&#xee39;" horiz-adv-x="83" d="M-804 -618q0 73 50.5 123.5t123.5 50.5t125.5 -51t52.5 -123v-227h94q10 0 14.5 1.5t7.5 11t3 30.5v343h178v-343q0 -26 -2.5 -46t-10.5 -35t-14.5 -25t-23 -16.5t-27.5 -10t-36 -5t-40.5 -2t-48.5 -0.5h-272v150q-73 0 -123.5 51t-50.5 123zM-719 -618q0 -36 26 -61.5 t63 -25.5q36 0 61.5 25.5t25.5 61.5q0 37 -25.5 63t-61.5 26q-37 0 -63 -26t-26 -63z" />
<glyph unicode="&#xee3a;" horiz-adv-x="73" d="M-415 -556q0 47 34.5 81.5t81.5 34.5q48 0 82 -34t34 -82t-34 -82t-82 -34q-47 0 -81.5 34.5t-34.5 81.5z" />
<glyph unicode="&#xee47;" d="M-1053 1405q0 79 73.5 135.5t163.5 56.5q30 0 94 -5t99 -5q62 0 94 24.5t32 93.5l122 -44q-19 -96 -78 -130t-160 -34q-30 0 -96.5 3.5t-106.5 3.5q-41 0 -79.5 -28.5t-38.5 -70.5q0 -52 43 -82q16 36 42 54.5t76 18.5q39 -3 118 -56q2 46 38 78.5t86 32.5q51 0 88 -34 t37 -82q0 -49 -38.5 -89.5t-98.5 -40.5q-31 0 -65 15.5t-58.5 34t-54.5 34t-54 15.5q-44 0 -51 -84h-101q-46 20 -86 74.5t-40 110.5zM-580 1333q0 -18 15 -34t34 -16q18 0 33 16t15 34q0 21 -15 37t-33 16q-20 0 -34.5 -15.5t-14.5 -37.5z" />
<glyph unicode="&#xee48;" d="M-333 1196v391h178v-391h-178z" />
<glyph unicode="&#xee49;" d="M-686 1522q0 72 51 123t123 51t123 -51t51 -123q0 -32 -12 -71.5t-21.5 -60.5t-34.5 -72q74 13 132 50.5t92.5 89t53.5 104.5t26 109l158 -46q-4 -27 -15.5 -61t-37 -79.5t-60.5 -88t-89.5 -83t-120.5 -68.5t-158.5 -40.5t-197.5 -3.5v47q44 12 80 38.5t46 63.5 q-5 -2 -15 -2q-72 0 -123 51t-51 123zM-601 1522q0 -36 26 -61.5t63 -25.5q36 0 61.5 25.5t25.5 61.5q0 37 -25.5 63t-61.5 26q-37 0 -63 -26t-26 -63z" />
<glyph unicode="&#xee4a;" horiz-adv-x="1" d="M-741 1365q0 82 40 159.5t131 125.5l114 -80q42 30 115 79q47 -20 81 -52t51 -67t24.5 -65.5t7.5 -58.5q-3 -25 -16 -77q31 28 45.5 103t12.5 131.5t-2 81.5h113v-4q4 -10 1 -43.5t-5.5 -76.5t-20.5 -95t-44 -98.5t-77 -88t-118 -63.5l-58 27q21 24 37 81.5t17 116.5 q-3 105 -51 150q-16 -9 -56.5 -33t-57.5 -33l-113 66q-10 -8 -21.5 -34.5t-9.5 -40.5h19q64 0 108 -44t44 -108q0 -63 -44.5 -109t-107.5 -46q-53 0 -94 32.5t-54 81.5q-11 35 -11 82zM-650 1326q0 -29 20 -49.5t48 -20.5q26 0 45.5 20.5t19.5 49.5q0 26 -19.5 44.5 t-45.5 18.5q-29 0 -48.5 -18t-19.5 -45z" />
<glyph unicode="&#xee4b;" d="M-478 1343v126h140v140h178v-140h140v-126h-140v-140h-178v140h-140z" />
<glyph unicode="&#xee4c;" d="M-490 1340q0 148 196 186q53 11 88.5 22.5t73.5 34.5t62 61t36 93l159 -35q-9 -51 -32.5 -90t-53 -64t-75 -45t-85 -31t-96.5 -23q57 -44 57 -111q0 -64 -45.5 -106t-120.5 -42t-120.5 43t-43.5 107zM-398 1335q0 -31 21.5 -52.5t52.5 -21.5q29 -1 51 21t22 51 q0 31 -21 52t-52 21q-30 0 -52 -21t-22 -50z" />
<glyph unicode="&#xee4d;" d="M-532 1717q0 85 59 144t142 59q85 0 144 -59t59 -144q0 -84 -59.5 -143.5t-143.5 -59.5q-83 0 -142 60t-59 143zM-428 1717q0 -41 28.5 -69t68.5 -28q41 0 70 28t29 69t-29 70t-70 29q-40 0 -68.5 -29t-28.5 -70z" />
<glyph unicode="&#xf0e48;" d="M-635 1263v372h178v-372h-178z" />
<glyph unicode="&#xf0e49;" d="M-944 1625q0 72 51 123t123 51t123 -51t51 -123q0 -32 -11.5 -71t-22 -61.5t-34.5 -72.5q74 13 132 50.5t92.5 89t53.5 104.5t26 109l159 -46q-4 -27 -16 -61t-37 -79t-60 -87.5t-90 -83t-121 -68.5t-158.5 -40.5t-197.5 -3.5v46q45 12 81 38.5t46 63.5q-2 -1 -16 -1 q-72 0 -123 51t-51 123zM-858 1625q0 -36 25.5 -61.5t62.5 -25.5q36 0 61.5 25.5t25.5 61.5q0 37 -25.5 62.5t-61.5 25.5q-37 0 -62.5 -25.5t-25.5 -62.5z" />
<glyph unicode="&#xf0e4a;" d="M-1019 1524q0 82 40 159.5t131 125.5l114 -80q36 26 114 78q47 -20 81 -51.5t51 -66.5t24.5 -65.5t7.5 -58.5q-10 -80 -15 -101q57 20 81.5 143.5t8.5 196.5h113q3 -18 3.5 -45.5t-3.5 -70t-14 -84.5t-32.5 -87t-54 -81t-83 -64t-115.5 -37l-58 27q21 25 37.5 82 t17.5 116q-3 105 -51 150q-15 -9 -56.5 -33t-58.5 -33l-112 66q-10 -8 -21.5 -34.5t-9.5 -40.5h19q64 0 108 -44t44 -108q0 -63 -44.5 -109t-107.5 -46q-53 0 -94.5 33t-54.5 81q-10 31 -10 82zM-928 1485q0 -29 20 -49.5t48 -20.5q26 0 45.5 20.5t19.5 49.5 q0 26 -19.5 44.5t-45.5 18.5q-29 0 -48.5 -18t-19.5 -45z" />
<glyph unicode="&#xf0e4b;" d="M-823 1497v126h157v140h161v-140h157v-126h-157v-140h-161v140h-157z" />
<glyph unicode="&#xf0e4c;" d="M-761 1447q0 148 196 186q53 10 88.5 22.5t73.5 35t62 61t36 93.5l158 -36q-9 -51 -32.5 -90t-53 -64t-74.5 -45t-84.5 -31t-96.5 -23q56 -44 56 -110q0 -64 -45.5 -106.5t-119.5 -42.5q-75 0 -120.5 43t-43.5 107zM-669 1442q0 -31 21 -52t52 -21q29 -1 51.5 20.5 t22.5 50.5q0 31 -21.5 52.5t-52.5 21.5q-29 0 -51 -21.5t-22 -50.5z" />
<glyph unicode="&#xf0e4d;" d="M-857 1464q0 84 59.5 143.5t142.5 59.5q85 0 144 -59t59 -144q0 -84 -59.5 -143.5t-143.5 -59.5q-83 0 -142.5 60t-59.5 143zM-753 1464q0 -41 29 -69t69 -28q41 0 70 28t29 69t-29 70t-70 29q-40 0 -69 -29t-29 -70z" />
<glyph unicode="&#xfee48;" d="M-587 1724v309h162v-309h-162z" />
<glyph unicode="&#xfee49;" d="M-780 2038q0 65 45 109t109 44q62 0 107.5 -44.5t45.5 -108.5q11 -85 -53 -208q112 11 196.5 107.5t97.5 235.5l118 -33q-6 -55 -25.5 -109.5t-64 -117t-108.5 -108t-169 -74t-236 -23.5v50q49 16 86 52t32 78q-16 -4 -27 -4q-64 0 -109 44.5t-45 109.5zM-705 2038 q0 -32 23 -53.5t56 -21.5t56.5 21.5t23.5 53.5t-23.5 54.5t-56.5 22.5q-32 0 -55.5 -22.5t-23.5 -54.5z" />
<glyph unicode="&#xfee4a;" d="M-983 1871q0 82 40 159.5t131 125.5l114 -81q54 39 114 79q47 -20 81 -52t51 -67t24.5 -65.5t7.5 -58.5q-10 -78 -15 -100q57 20 81.5 143t8.5 196h113q3 -18 3.5 -45.5t-3.5 -70t-14 -84.5t-32.5 -87t-54 -81t-83 -64t-115.5 -37l-58 27q21 25 37.5 82t17.5 116 q-3 106 -51 151q-16 -9 -57 -33.5t-58 -33.5l-112 67q-10 -8 -21.5 -35t-9.5 -41h19q64 0 108 -43.5t44 -107.5t-44.5 -110t-107.5 -46q-53 0 -94.5 33t-54.5 82q-10 31 -10 82zM-893 1831q0 -29 20 -49.5t49 -20.5q26 0 45.5 20.5t19.5 49.5q0 26 -19.5 44.5t-45.5 18.5 q-29 0 -49 -18t-20 -45z" />
<glyph unicode="&#xfee4b;" d="M-748 1860v109h157v140h161v-140h157v-109h-157v-140h-161v140h-157z" />
<glyph unicode="&#xfee4c;" d="M-625 1710q0 148 197 186q53 10 88.5 22.5t73 35t61.5 61t36 93.5l159 -36q-9 -51 -32.5 -90t-53 -64t-75 -45t-85 -31t-96.5 -23q57 -44 57 -111q0 -64 -45.5 -106t-120.5 -42t-120.5 43t-43.5 107zM-532 1705q0 -31 21 -52t52 -21q29 -1 51 20.5t22 50.5q0 31 -21 52.5 t-52 21.5q-29 0 -51 -21.5t-22 -50.5z" />
<glyph unicode="&#xfee4d;" d="M-652 1708q0 85 59 144t142 59q85 0 144.5 -59t59.5 -144q0 -84 -59.5 -143.5t-144.5 -59.5q-83 0 -142 60t-59 143zM-548 1708q0 -41 28.5 -69t68.5 -28q41 0 70 28t29 69t-29 70t-70 29q-40 0 -68.5 -29t-28.5 -70z" />
</font>
</defs>
</svg>
